<svg class="{{ include.css-class }}" width="361" height="361" viewBox="0 0 361 361" xmlns="http://www.w3.org/2000/svg"><title>Equipo</title><g stroke="#FFF" stroke-width="2" fill="none" fill-rule="evenodd"><path d="M180.49 360.36C81.5 360.36 1 279.835 1 180.86 1 81.882 81.5 1.36 180.49 1.36 279.463 1.36 360 81.882 360 180.86c0 98.976-80.538 179.5-179.51 179.5"/><path d="M210.649 135.205l-10.593 3.867-2.77 5.547c-2.268 6.181-9.369 8.582-15.043 5.08l-.247-.153s3.826-15.98 6.77-19.712c4.217-4.525 13.045-10.771 20.553-12.227l9.716 3.782M225.193 151.086l-5.56 10.397-5.936 2.014c-6.482 1.391-10.021 8.392-7.49 14.83l.111.278s16.425-1.48 20.602-3.96c5.159-3.676 12.785-11.87 15.454-19.438l-2.146-10.68"/><path d="M237.59 146.746c-6.597 5.636-16.51 4.86-22.15-1.737-5.636-6.597-4.856-16.511 1.738-22.147 6.596-5.64 16.513-4.86 22.149 1.734 5.636 6.597 4.86 16.514-1.737 22.15zM150.709 135.205l10.592 3.867 2.77 5.547c2.268 6.181 9.37 8.582 15.043 5.08l.247-.153s-3.826-15.98-6.77-19.712c-4.217-4.525-13.044-10.771-20.552-12.227l-9.716 3.782M136.164 151.086l5.56 10.397 5.936 2.014c6.483 1.391 10.022 8.392 7.49 14.83l-.11.278s-16.425-1.48-20.602-3.96c-5.16-3.676-12.785-11.87-15.454-19.438l2.145-10.68"/><path d="M123.767 146.746c6.597 5.636 16.51 4.86 22.15-1.737 5.636-6.597 4.856-16.511-1.737-22.147-6.596-5.64-16.514-4.86-22.15 1.734-5.636 6.597-4.86 16.514 1.737 22.15zM210.865 225.586l-10.593-3.867-2.77-5.547c-2.267-6.181-9.369-8.582-15.042-5.08l-.247.152s3.826 15.98 6.77 19.713c4.217 4.524 13.044 10.77 20.552 12.227l9.716-3.783M225.41 209.705l-5.56-10.397-5.937-2.014c-6.482-1.392-10.021-8.393-7.49-14.83l.112-.278s16.424 1.48 20.601 3.96c5.16 3.676 12.785 11.87 15.454 19.438l-2.146 10.68"/><path d="M237.807 214.045c-6.597-5.637-16.51-4.86-22.15 1.737-5.636 6.597-4.856 16.51 1.737 22.147 6.596 5.64 16.514 4.86 22.15-1.734 5.635-6.597 4.86-16.514-1.737-22.15z"/><g><path d="M150.925 225.586l10.593-3.867 2.77-5.547c2.268-6.181 9.369-8.582 15.043-5.08l.247.152s-3.826 15.98-6.77 19.713c-4.217 4.524-13.045 10.77-20.553 12.227l-9.716-3.783M136.38 209.705l5.56-10.397 5.937-2.014c6.482-1.392 10.021-8.393 7.49-14.83l-.111-.278s-16.425 1.48-20.602 3.96c-5.159 3.676-12.785 11.87-15.454 19.438l2.146 10.68"/><path d="M123.984 214.045c6.597-5.637 16.51-4.86 22.15 1.737 5.636 6.597 4.855 16.51-1.738 22.147-6.596 5.64-16.514 4.86-22.15-1.734-5.635-6.597-4.859-16.514 1.738-22.15z"/></g><path d="M229.208 187.704c.432-2.44.656-4.936.656-7.478 0-2.483-.214-4.923-.626-7.308M187.72 131.574a42.78 42.78 0 0 0-7.075-.587c-2.443 0-4.845.207-7.193.607M132.128 172.756a42.917 42.917 0 0 0-.634 7.36c0 2.794.27 5.532.787 8.196M174.251 228.951a39.376 39.376 0 0 0 13.282-.34"/></g></svg>
