<svg class="{{ include.css-class }}" width="644" height="327" viewBox="0 0 644 327" version="1.1" xmlns="http://www.w3.org/2000/svg" xmlns:xlink="http://www.w3.org/1999/xlink">
    <title>Group 5</title>
    <desc>Created with Sketch.</desc>
    <defs>
        <linearGradient x1="-0.927643785%" y1="49.9939703%" x2="100.886735%" y2="49.9939703%" id="linearGradient-1">
            <stop stop-color="#19B5DB" offset="0%"></stop>
            <stop stop-color="#ACDBE1" offset="100%"></stop>
        </linearGradient>
        <linearGradient x1="-0.946011132%" y1="49.9793135%" x2="100.868367%" y2="49.9793135%" id="linearGradient-2">
            <stop stop-color="#75BD7B" offset="0%"></stop>
            <stop stop-color="#D0DF91" offset="100%"></stop>
        </linearGradient>
    </defs>
    <g id="HOME" stroke="none" stroke-width="1" fill="none" fill-rule="evenodd">
        <g id="01_HOME---Estrategia" transform="translate(-398.000000, -2797.000000)">
            <g id="Negocio-y-tecnología" transform="translate(0.000000, 2359.000000)">
                <g id="Infografia" transform="translate(155.000000, 439.000000)">
                    <g id="Group-5" transform="translate(243.000000, 0.000000)">
                        <g id="Group-2" transform="translate(0.000000, 129.000000)" fill-rule="nonzero">
                            <path d="M90.0240375,107.544058 L90.0240375,112.622831 L90.3239267,112.622831 C90.8110323,111.213951 91.5658352,110.2646 93.0391796,108.822525 C93.49395,108.37743 93.7005644,108.168439 93.8981995,107.951266 C94.6038552,107.074543 94.889409,106.123173 94.889409,104.527414 C94.889409,101.123176 92.1962433,98.36242 88.9028131,98.36242 L88.9028131,97.2450565 L88.9028131,98.36242 C85.6138179,98.36242 82.9242052,101.122748 82.9242052,104.527414 C82.9242052,105.981751 83.2607849,107.096029 83.8865198,107.916627 C84.124861,108.180763 84.3447607,108.403449 84.7794381,108.828839 C84.8575098,108.905443 84.8575098,108.905443 84.9365694,108.98319 C86.2567786,110.282972 87.0050769,111.258076 87.4826137,112.622831 L87.7893105,112.622831 L87.7893105,107.543924 L85.8579376,105.604494 L87.441414,104.027596 L88.9067406,105.499036 L90.3720672,104.027596 L91.9555435,105.604494 L90.0240375,107.544058 Z M88.9303738,107.059863 L88.9067406,107.036328 L88.8831073,107.059863 L88.9303738,107.059863 Z M114.509171,122.358557 L114.509171,87.5300991 C114.509171,86.6760859 113.817894,85.9848092 112.963881,85.9848092 L65.036119,85.9848092 C64.1821058,85.9848092 63.490829,86.6760859 63.490829,87.5300991 L63.490829,122.358557 L82.3433664,122.358557 C82.6397096,122.358557 82.9239154,122.476279 83.1334617,122.685825 L84.1375202,123.689884 L93.8624798,123.689884 L94.8665383,122.685825 C95.0760846,122.476279 95.3602904,122.358557 95.6566336,122.358557 L114.509171,122.358557 Z M116.743898,122.358557 L119.620515,122.358557 C120.237617,122.358557 120.737878,122.858818 120.737878,123.475921 L120.737878,126.138574 C120.737878,128.961685 118.449646,131.249918 115.626534,131.249918 L62.3734655,131.249918 C59.5503543,131.249918 57.2621218,128.961685 57.2621218,126.138574 L57.2621218,123.475921 C57.2621218,122.858818 57.7623825,122.358557 58.3794853,122.358557 L61.256102,122.358557 L61.256102,87.5300991 C61.256102,85.4418803 62.9479001,83.7500822 65.036119,83.7500822 L112.963881,83.7500822 C115.0521,83.7500822 116.743898,85.4418803 116.743898,87.5300991 L116.743898,122.358557 Z M59.4968488,126.138574 C59.4968488,127.72748 60.78456,129.015191 62.3734655,129.015191 L115.626534,129.015191 C117.21544,129.015191 118.503151,127.72748 118.503151,126.138574 L118.503151,124.593284 L96.1194607,124.593284 L95.1154022,125.597343 C94.9058559,125.806889 94.6216501,125.924611 94.3253069,125.924611 L83.6746931,125.924611 C83.3783499,125.924611 83.0941441,125.806889 82.8845978,125.597343 L81.8805393,124.593284 L59.4968488,124.593284 L59.4968488,126.138574 Z M88.9028131,97.2450565 L88.9028131,96.127693 C93.4430163,96.127693 97.1241361,99.9011979 97.1241361,104.527414 C97.1241361,106.60139 96.6904867,108.046166 95.5993279,109.399163 C95.3201737,109.709468 95.0903089,109.941978 94.6023102,110.419593 C93.1248995,111.865648 92.5961915,112.596322 92.2435832,114.010517 C92.1194781,114.508261 91.6723946,114.857558 91.1594119,114.857558 L86.648877,114.857558 C86.1355021,114.857558 85.6881828,114.507737 85.5644518,114.009496 C85.2268761,112.650143 84.6789579,111.865591 83.368747,110.575653 C83.2919496,110.50013 83.2919496,110.50013 83.2153568,110.424976 C82.7500387,109.969601 82.5058471,109.722315 82.1707483,109.345717 C81.1707624,108.04352 80.6894782,106.450184 80.6894782,104.527414 C80.6894782,99.9013357 84.3664463,96.127693 88.9028131,96.127693 L88.9028131,97.2450565 Z M89.9094103,93.7934588 L87.6746833,93.7934588 L87.6746833,90.6195759 L89.9094103,90.6195759 L89.9094103,93.7934588 Z M81.6527615,97.1069135 L80.0717693,98.6863022 L77.4490557,96.0609259 L79.0300478,94.4815372 L81.6527615,97.1069135 Z M97.5426226,98.7746245 L95.9609434,97.1959239 L98.783356,94.3681859 L100.365035,95.9468865 L97.5426226,98.7746245 Z M86.5061588,118.841021 L86.5061588,116.606294 L91.3069229,116.606294 L91.3069229,118.841021 L86.5061588,118.841021 Z" id="Stroke-5" fill="#282B33"></path>
                            <path d="M89,18 C137.986751,18 177.834702,58.1257372 178,107.5 C178,156.816327 138.043353,197 89,197 C39.9566471,197 0,156.816327 0,107.5 C0,58.1836735 39.9566471,18 89,18 Z M89,20 C41.0637611,20 2,59.2857143 2,107.5 C2,155.714286 41.0637611,195 89,195 C136.936239,195 176,155.714286 176.000006,107.503348 C175.838387,59.2298052 136.880165,20 89,20 Z" id="Shape-Copy" fill="url(#linearGradient-1)"></path>
                            <path d="M72.2941344,-54.0749398 L71.5829716,-54.7779671 L72.9890263,-56.2002927 L73.7001891,-55.4972654 C93.3126978,-36.1091163 103.55642,-12.3802305 104.411822,15.6379539 L104.442338,16.6374882 L102.44327,16.6985203 L102.412754,15.698986 C101.572943,-11.8084949 91.5399144,-35.0493241 72.2941344,-54.0749398 Z M75.0908756,90.8461522 C75.3477926,91.2385711 75.4971618,91.7076258 75.4971618,92.2115345 C75.4971618,93.5909413 74.3778737,94.7091715 72.9971618,94.7091715 C71.6164499,94.7091715 70.4971618,93.5909413 70.4971618,92.2115345 C70.4971618,90.8321276 71.6164499,89.7138974 72.9971618,89.7138974 C73.1219237,89.7138974 73.2445511,89.7230278 73.364411,89.7406563 C91.4343737,71.9486078 101.09271,49.5674917 102.352166,22.5470049 C100.70096,22.0539533 99.4971618,20.5245324 99.4971618,18.7138974 C99.4971618,16.5045466 101.289505,14.7138974 103.5,14.7138974 C105.710495,14.7138974 107.502838,16.5045466 107.502838,18.7138974 C107.502838,20.6314582 106.152663,22.2336103 104.350777,22.6233571 C103.078913,49.9853737 93.3214353,72.7427919 75.0908756,90.8461522 Z M103.5,20.7138974 C104.606349,20.7138974 105.502838,19.8182551 105.502838,18.7138974 C105.502838,17.6095397 104.606349,16.7138974 103.5,16.7138974 C102.393651,16.7138974 101.497162,17.6095397 101.497162,18.7138974 C101.497162,19.8182551 102.393651,20.7138974 103.5,20.7138974 Z M72.9971618,-52.2908285 C71.6164499,-52.2908285 70.4971618,-53.4090587 70.4971618,-54.7884655 C70.4971618,-56.1678724 71.6164499,-57.2861026 72.9971618,-57.2861026 C74.3778737,-57.2861026 75.4971618,-56.1678724 75.4971618,-54.7884655 C75.4971618,-53.4090587 74.3778737,-52.2908285 72.9971618,-52.2908285 Z" id="Combined-Shape-Copy-2" fill="#A4AFB1" transform="translate(89.000000, 18.711534) rotate(-90.000000) translate(-89.000000, -18.711534) "></path>
                        </g>
                        <g id="Group" transform="translate(466.000000, 129.000000)" fill-rule="nonzero">
                            <path d="M89,18 C137.986751,18 177.834702,58.1257372 178,107.5 C178,156.816327 138.043353,197 89,197 C39.9566471,197 0,156.816327 0,107.5 C0,58.1836735 39.9566471,18 89,18 Z M89,20 C41.0637611,20 2,59.2857143 2,107.5 C2,155.714286 41.0637611,195 89,195 C136.936239,195 176,155.714286 176.000006,107.503348 C175.838387,59.2298052 136.880165,20 89,20 Z" id="Shape" fill="url(#linearGradient-2)"></path>
                            <path d="M72.2941344,-54.0749398 L71.5829716,-54.7779671 L72.9890263,-56.2002927 L73.7001891,-55.4972654 C93.3126978,-36.1091163 103.55642,-12.3802305 104.411822,15.6379539 L104.442338,16.6374882 L102.44327,16.6985203 L102.412754,15.698986 C101.572943,-11.8084949 91.5399144,-35.0493241 72.2941344,-54.0749398 Z M75.0908756,90.8461522 C75.3477926,91.2385711 75.4971618,91.7076258 75.4971618,92.2115345 C75.4971618,93.5909413 74.3778737,94.7091715 72.9971618,94.7091715 C71.6164499,94.7091715 70.4971618,93.5909413 70.4971618,92.2115345 C70.4971618,90.8321276 71.6164499,89.7138974 72.9971618,89.7138974 C73.1219237,89.7138974 73.2445511,89.7230278 73.364411,89.7406563 C91.4343737,71.9486078 101.09271,49.5674917 102.352166,22.5470049 C100.70096,22.0539533 99.4971618,20.5245324 99.4971618,18.7138974 C99.4971618,16.5045466 101.289505,14.7138974 103.5,14.7138974 C105.710495,14.7138974 107.502838,16.5045466 107.502838,18.7138974 C107.502838,20.6314582 106.152663,22.2336103 104.350777,22.6233571 C103.078913,49.9853737 93.3214353,72.7427919 75.0908756,90.8461522 Z M103.5,20.7138974 C104.606349,20.7138974 105.502838,19.8182551 105.502838,18.7138974 C105.502838,17.6095397 104.606349,16.7138974 103.5,16.7138974 C102.393651,16.7138974 101.497162,17.6095397 101.497162,18.7138974 C101.497162,19.8182551 102.393651,20.7138974 103.5,20.7138974 Z M72.9971618,-52.2908285 C71.6164499,-52.2908285 70.4971618,-53.4090587 70.4971618,-54.7884655 C70.4971618,-56.1678724 71.6164499,-57.2861026 72.9971618,-57.2861026 C74.3778737,-57.2861026 75.4971618,-56.1678724 75.4971618,-54.7884655 C75.4971618,-53.4090587 74.3778737,-52.2908285 72.9971618,-52.2908285 Z" id="Combined-Shape-Copy-2" fill="#A4AFB1" transform="translate(89.000000, 18.711534) rotate(-90.000000) translate(-89.000000, -18.711534) "></path>
                            <path d="M113.24193,116.409736 L113.24193,121.102686 L111.007203,121.102686 L111.007203,118.450185 L106.78816,118.065937 L106.572655,117.339781 C106.40578,116.777483 106.185818,116.243076 105.915967,115.74498 L105.566915,115.100696 L108.188879,111.752689 L106.511609,110.075418 L103.163602,112.697383 L102.519318,112.348331 C102.021221,112.07848 101.486814,111.858518 100.924517,111.691643 L100.221591,111.483032 L99.7084231,107.257095 L97.3353374,107.257095 L96.8221696,111.483032 L96.1192436,111.691643 C95.5569463,111.858518 95.0225391,112.07848 94.5244427,112.348331 L93.8801585,112.697383 L90.5321513,110.075418 L88.8548811,111.752689 L91.4768454,115.100696 L91.127794,115.74498 C90.8579423,116.243076 90.6379808,116.777483 90.4711054,117.339781 L90.2556009,118.065937 L86.0365577,118.450185 L86.0365577,121.102686 L83.8018307,121.102686 L83.8018307,116.409736 L88.5733074,115.975176 C88.6531522,115.76267 88.7394609,115.553539 88.8321382,115.348107 L85.8750331,111.572155 L90.3516181,107.09557 L94.1275693,110.052675 C94.3402597,109.956724 94.5569147,109.867599 94.7771739,109.785406 L95.3555635,105.022368 L101.688197,105.022368 L102.266587,109.785406 C102.486846,109.867599 102.703501,109.956724 102.916191,110.052675 L106.692142,107.09557 L111.168727,111.572155 L108.211622,115.348107 C108.3043,115.553539 108.390608,115.76267 108.470453,115.975176 L113.24193,116.409736 Z M103.72005,121.102686 L101.485323,121.102686 L101.485323,119.741057 C101.485323,118.104195 100.158743,116.777615 98.5218803,116.777615 C96.885018,116.777615 95.5584379,118.104195 95.5584379,119.741057 L95.5584379,121.102686 L93.3237109,121.102686 L93.3237109,119.741057 C93.3237109,116.869989 95.6508124,114.542888 98.5218803,114.542888 C101.392948,114.542888 103.72005,116.869989 103.72005,119.741057 L103.72005,121.102686 Z M78.3607562,87.0959709 L80.5954832,87.0959709 C80.5954832,88.7328331 81.9220633,90.0594132 83.5589256,90.0594132 C85.1957878,90.0594132 86.5223679,88.7328331 86.5223679,87.0959709 L88.7570949,87.0959709 C88.7570949,89.9670388 86.4299935,92.2941402 83.5589256,92.2941402 C80.6878577,92.2941402 78.3607562,89.9670388 78.3607562,87.0959709 Z M62.9119913,121.102686 L60.6772643,121.102686 L60.6772643,87.0959709 C60.6772643,84.9376279 62.3797572,83.2580701 64.515165,83.2580701 L113.484835,83.2580701 C115.620243,83.2580701 117.322736,84.9376279 117.322736,87.0959709 L117.322736,121.102686 L115.088009,121.102686 L115.088009,87.0959709 C115.088009,86.178669 114.392771,85.4927971 113.484835,85.4927971 L64.515165,85.4927971 C63.6072291,85.4927971 62.9119913,86.178669 62.9119913,87.0959709 L62.9119913,121.102686 Z M95.3385159,122.70586 L121.403542,122.70586 L121.403542,125.183492 C121.403542,128.805428 118.46704,131.74193 114.845104,131.74193 L63.1548964,131.74193 C59.5329602,131.74193 56.5964585,128.805428 56.5964585,125.183492 L56.5964585,122.70586 L84.0217527,122.70586 L85.3820213,124.066128 L93.9782473,124.066128 L95.3385159,122.70586 Z M96.2641702,124.940587 L94.9039016,126.300855 L84.4563671,126.300855 L83.0960984,124.940587 L58.8311855,124.940587 L58.8311855,125.183492 C58.8311855,127.571222 60.7671659,129.507203 63.1548964,129.507203 L114.845104,129.507203 C117.232834,129.507203 119.168815,127.571222 119.168815,125.183492 L119.168815,124.940587 L96.2641702,124.940587 Z M66.1183387,92.2941402 L66.1183387,87.0959709 L68.3530657,87.0959709 L68.3530657,90.0594132 L73.8986749,90.0594132 L74.1150502,90.897438 C74.3443291,91.7854388 74.6940865,92.6288452 75.1542346,93.4080292 L75.5947502,94.153969 L71.672588,98.0748299 L73.9403351,100.342577 L77.8607606,96.4208504 L78.6064731,96.8605394 C79.3885985,97.3216982 80.230992,97.6711628 81.117727,97.9001148 L81.9557518,98.1164901 L81.9557518,103.662099 L85.1620993,103.662099 L85.1620993,98.1164901 L86.0001241,97.9001148 C86.8868591,97.6711628 87.7292526,97.3216982 88.511378,96.8605394 L89.2570906,96.4208504 L93.1773763,100.342437 L95.4441736,98.0748385 L91.5231763,94.1538412 L91.9636165,93.4080292 C92.4237646,92.6288452 92.7735221,91.7854388 93.0028009,90.897438 L93.2191762,90.0594132 L98.7647854,90.0594132 L98.7647854,87.0959709 L100.999512,87.0959709 L100.999512,92.2941402 L94.917488,92.2941402 C94.7461152,92.8023392 94.5414029,93.2968865 94.3047206,93.7750043 L98.6042755,98.0745591 L93.1773935,103.50336 L88.877367,99.2019065 C88.3988761,99.4387379 87.9045772,99.6434335 87.3968263,99.8147341 L87.3968263,105.896826 L79.7210248,105.896826 L79.7210248,99.8147341 C79.2132739,99.6434335 78.718975,99.4387379 78.2404842,99.2019065 L73.9405973,103.50322 L68.5119446,98.0745677 L72.8130658,93.7748735 C72.5764109,93.2967964 72.3717203,92.8022929 72.2003632,92.2941402 L66.1183387,92.2941402 Z" id="Combined-Shape" fill="#282B33"></path>
                        </g>
                        <path d="M282.044737,-157.69686 C335.977139,-92.7169101 362.337922,-19.1542655 362.337922,62.9910739 C362.337922,144.519348 335.169915,217.439578 282.044737,281.751764" id="Line-2" stroke="#A4AFB1" stroke-width="2.5" stroke-linecap="round" transform="translate(322.191330, 62.027452) rotate(-90.000000) translate(-322.191330, -62.027452) "></path>
                        <polyline id="Line-3" stroke="#A4AFB1" stroke-width="2.5" stroke-linecap="round" stroke-linejoin="round" transform="translate(544.635672, 104.202265) rotate(-360.000000) translate(-544.635672, -104.202265) " points="538.79378 109.990554 550.477564 110.075969 550.477564 98.3285598"></polyline>
                        <polyline id="Line-3" stroke="#A4AFB1" stroke-width="2.5" stroke-linecap="round" stroke-linejoin="round" transform="translate(99.687500, 104.547432) rotate(-270.000000) translate(-99.687500, -104.547432) " points="105.529392 98.6737275 105.529392 110.421137 93.8456078 110.335722 93.8456078 110.335722"></polyline>
                        <g id="TMD" transform="translate(293.207031, 0.140625)">
                            <path d="M28.9984898,58 C13.0056762,58 0,44.990626 0,29 C0,13.009374 13.0056762,0 28.9984898,0 C44.9882831,0 58,13.009374 58,29 C58,44.990626 44.9882831,58 28.9984898,58" id="Path" stroke="#282B33" stroke-width="2" fill="#FFFFFF"></path>
                            <path d="M29,31.0854152 L14.088416,46.0782393 C14.088416,46.0782393 19.73734,52.2502441 29,52.2502441 C38.26266,52.2502441 43.911584,46.0782393 43.911584,46.0782393 L29,31.0854152 Z" id="Fill-4" fill="#282B33"></path>
                            <path d="M27.0759246,29.1613399 L12.0831006,14.2497559 C12.0831006,14.2497559 5.91109573,19.8986799 5.91109573,29.1613399 C5.91109573,38.4239999 12.0831006,44.0729239 12.0831006,44.0729239 L27.0759246,29.1613399 Z" id="Fill-6" fill="#98BE13"></path>
                            <path d="M30.9240754,29.1613399 L45.9168994,14.2497559 C45.9168994,14.2497559 52.0889043,19.8986799 52.0889043,29.1613399 C52.0889043,38.4239999 45.9168994,44.0729239 45.9168994,44.0729239 L30.9240754,29.1613399 Z" id="Fill-8" fill="#21B7CA"></path>
                        </g>
                    </g>
                </g>
            </g>
        </g>
    </g>
</svg>
