<svg class="{{ include.css-class }}" width="270" height="180" viewBox="0 0 270 180" xmlns="http://www.w3.org/2000/svg"><title>Analysis</title><defs><linearGradient x1="-.937%" y1="49.979%" x2="100.877%" y2="49.979%" id="a"><stop stop-color="#55BCB1" offset="0%"/><stop stop-color="#B3DCD9" offset="100%"/></linearGradient></defs><g fill="none" fill-rule="evenodd"><path d="M0 90C0 40.408 40.18 0 89.497 0c49.26 0 89.331 40.35 89.497 90 0 49.592-40.18 90-89.497 90S0 139.592 0 90zm2.011 0c0 48.484 39.282 87.989 87.486 87.989 48.204 0 87.486-39.505 87.486-87.986-.162-48.543-39.338-87.992-87.486-87.992C41.293 2.011 2.011 41.516 2.011 90z" fill="url(#a)" fill-rule="nonzero"/><path d="M98.423 100.85a15.026 15.026 0 0 1-9.931 3.731c-8.33 0-15.084-6.753-15.084-15.084 0-8.33 6.753-15.084 15.084-15.084 8.33 0 15.083 6.754 15.083 15.084 0 3.824-1.422 7.315-3.767 9.973l.04-.039 12.483 12.484-1.422 1.422-12.486-12.486zm-9.931 1.72c7.22 0 13.072-5.853 13.072-13.073 0-7.22-5.853-13.072-13.072-13.072-7.22 0-13.073 5.852-13.073 13.072 0 7.22 5.853 13.073 13.073 13.073zM53.838 78.436c-1.295 0-2.29-1.175-2.537-2.53l-.016-.18v-6.647c0-1.515 1.162-2.71 2.553-2.71h2.939c1.472 0 2.553 1.275 2.553 2.71v6.647c0 1.515-1.163 2.71-2.553 2.71h-2.94zm0-2.011h2.939c.267 0 .541-.283.541-.7V69.08c0-.392-.26-.7-.541-.7h-2.94c-.266 0-.54.283-.54.7v6.545c.107.464.4.8.54.8zM115.1 96.536h-2.94c-1.39 0-2.552-1.195-2.552-2.71V87.18c0-1.435 1.08-2.71 2.553-2.71h2.939c1.39 0 2.553 1.195 2.553 2.71v6.647l-.017.18c-.246 1.355-1.241 2.53-2.536 2.53zm.541-2.811v-6.546c0-.416-.274-.699-.541-.699h-2.94c-.28 0-.54.308-.54.7v6.646c0 .417.274.7.54.7h2.94c.141 0 .433-.337.541-.801zm4.564-15.29c-1.472 0-2.552-1.274-2.552-2.71V69.08c0-1.515 1.162-2.71 2.552-2.71h2.94c1.472 0 2.552 1.275 2.552 2.71v6.647c0 1.515-1.162 2.71-2.552 2.71h-2.94zm0-2.01h2.94c.267 0 .541-.283.541-.7V69.08c0-.392-.26-.7-.541-.7h-2.94c-.267 0-.541.283-.541.7v6.647c0 .391.26.699.541.699zM61.882 96.536c-1.472 0-2.552-1.275-2.552-2.71V87.18c0-1.515 1.162-2.71 2.552-2.71h2.94c1.472 0 2.552 1.275 2.552 2.71v6.647c0 1.515-1.162 2.71-2.552 2.71h-2.94zm0-2.01h2.94c.267 0 .541-.283.541-.7V87.18c0-.391-.26-.699-.541-.699h-2.94c-.267 0-.541.283-.541.7v6.646c0 .392.26.7.541.7zm-4.95 19.105h-3.094c-1.391 0-2.553-1.195-2.553-2.71v-6.647c0-1.435 1.08-2.71 2.553-2.71h2.939c1.39 0 2.553 1.195 2.553 2.71v6.647c0 1.518-1.006 2.71-2.398 2.71zm0-2.01c.198 0 .386-.224.386-.7v-6.647c0-.416-.274-.699-.541-.699h-2.94c-.28 0-.54.308-.54.7v6.646c0 .417.274.7.54.7h3.095zm36.046-15.085h-2.94c-1.39 0-2.552-1.195-2.552-2.71V87.18c0-1.435 1.08-2.71 2.553-2.71h2.94c1.39 0 2.552 1.195 2.552 2.71v6.647l-.016.18c-.247 1.355-1.242 2.53-2.537 2.53zm.542-9.357c0-.416-.275-.699-.542-.699h-2.94c-.28 0-.54.308-.54.7v6.646c0 .417.274.7.54.7h2.94c.141 0 .433-.337.542-.801v-6.546zm10.055-10.754h-2.01v-7.49a.551.551 0 0 0-.542-.555h-2.94a.55.55 0 0 0-.541.555v2.964H95.53v-2.964a2.56 2.56 0 0 1 2.552-2.566h2.94c1.45 0 2.552 1.191 2.552 2.566v7.49zm-22.122-4.526H79.44v-2.964a.551.551 0 0 0-.541-.555h-2.94a.55.55 0 0 0-.541.555v7.49h-2.011v-7.49a2.56 2.56 0 0 1 2.552-2.566h2.94c1.45 0 2.553 1.191 2.553 2.566v2.964zm30.167 34.08h-2.011v-1.705c0-1.435 1.08-2.71 2.553-2.71h2.939c1.39 0 2.553 1.195 2.553 2.71v6.647c0 1.435-1.08 2.71-2.553 2.71h-1.547v-2.01h1.547c.28 0 .541-.308.541-.7v-6.647c0-.416-.274-.699-.541-.699h-2.94c-.28 0-.54.308-.54.7v1.704zm-46.257-39.61h2.011V79.44h-2.01V66.37zm22.123 0h2.011v6.033h-2.011V66.37zm37.207 17.095h2.01v13.072h-2.01V83.464zm0 17.095h2.01v13.072h-2.01V100.56zm-15.084-34.19h2.011V79.44h-2.011V66.37zM51.285 83.464h2.011v13.072h-2.011V83.464zm50.28 25.694h2.01v1.734c0 1.448-1.075 2.74-2.552 2.74h-2.94c-1.394 0-2.552-1.212-2.552-2.74v-3.294h2.01v3.294c0 .437.28.728.542.728h2.94c.276 0 .541-.318.541-.728v-1.734zm-14.079-1.56h2.011v3.294c0 1.448-1.076 2.74-2.552 2.74h-2.94c-1.394 0-2.552-1.212-2.552-2.74v-3.294h2.01v3.294c0 .437.28.728.542.728h2.94c.276 0 .541-.318.541-.728v-3.294zm-22.123-7.04h2.011v13.073h-2.01V100.56zm8.045 2.012h2.011v11.061h-2.011V102.57zm8.045-19.106h2.01v13.072h-2.01V83.464z" fill="#282B33"/><path d="M242.585 91.508h-45.728c-.46 0-.768-.402-.768-1.005 0-.604.307-1.006.768-1.006h45.728c.46 0 .767.402.767 1.006 0 .603-.307 1.005-.767 1.005zm-.873-6.476c-.495-.33-.495-.99 0-1.32.33-.33.992-.33 1.322 0l5.617 5.61c.66.826.66 1.981 0 2.642l-5.617 5.611c-.33.33-.991.33-1.322 0-.33-.33-.33-.99 0-1.32l5.617-5.612-5.617-5.611zm-80.017-67.725l-.715-.707 1.414-1.43.715.707c19.722 19.497 30.023 43.358 30.883 71.533l.031 1.005-2.01.061-.03-1.005c-.845-27.661-10.934-51.032-30.288-70.164zm2.813 145.731a2.513 2.513 0 0 1-2.105 3.885 2.513 2.513 0 1 1 .369-4.997c18.17-17.891 27.883-40.397 29.15-67.569a4.024 4.024 0 0 1 1.154-7.877 4.024 4.024 0 0 1 .855 7.954c-1.279 27.515-11.09 50.4-29.423 68.604zm28.567-70.524c1.113 0 2.015-.9 2.015-2.011 0-1.11-.902-2.011-2.015-2.011-1.112 0-2.014.9-2.014 2.01 0 1.111.902 2.012 2.014 2.012zm-30.673-73.413a2.513 2.513 0 1 1 2.514-2.511 2.513 2.513 0 0 1-2.514 2.511z" fill="#A4AFB1" fill-rule="nonzero"/></g></svg>
