<svg class="{{ include.css-class }}" width="270" height="180" viewBox="0 0 270 180" xmlns="http://www.w3.org/2000/svg"><title>Visualization</title><defs><linearGradient x1="-.946%" y1="49.979%" x2="100.868%" y2="49.979%" id="a"><stop stop-color="#75BD7B" offset="0%"/><stop stop-color="#D0DF91" offset="100%"/></linearGradient></defs><g fill="none" fill-rule="evenodd"><path d="M89.497 0c49.26 0 89.331 40.35 89.497 90 0 49.592-40.18 90-89.497 90S0 139.592 0 90 40.18 0 89.497 0zm0 2.011C41.293 2.011 2.011 41.516 2.011 90s39.282 87.989 87.486 87.989c48.204 0 87.486-39.505 87.486-87.986-.162-48.543-39.338-87.992-87.486-87.992z" fill="url(#a)" fill-rule="nonzero" transform="translate(-.11)"/><path d="M108.568 94.612l12.133-11.838a32.836 32.836 0 0 0-2.525-7.067l-9.956 10.114c.631 2.752.657 5.669.03 8.552l-.021.135.34.104zm2.192.671l9.824 3.007.04-.144a33.123 33.123 0 0 0 .537-13.012l-10.4 10.149zm-3.19-11.669l9.613-9.765a31.792 31.792 0 0 0-3.892-5.369l-9.146 9.295a18.496 18.496 0 0 1 3.425 5.84zm-4.98-7.428l9.157-9.306a30.81 30.81 0 0 0-5.879-4.461l-9.343 10.1a17.997 17.997 0 0 1 6.065 3.667zm-8.406-4.323l9.713-10.499a29.892 29.892 0 0 0-6.32-2.246l-11.61 11.794.329 1.126a18.09 18.09 0 0 1 4.337-.534c1.208 0 2.395.121 3.551.359zm-8.862-3.162l9.88-10.038a30.753 30.753 0 0 0-4.569-.339c-2.708 0-5.393.328-7.867.961l-.176.052 2.732 9.364zM68.11 112.29l.177.182c5.86 5.951 13.633 9.203 21.933 9.203s16.074-3.252 21.956-9.226c2.369-2.257 4.3-5.042 6.003-8.5l-12.635-3.944a15.72 15.72 0 0 1-2.462 3.207c-3.481 3.536-8.01 5.469-12.862 5.469-4.834 0-9.347-1.918-12.823-5.43l-9.287 9.039zm-1.521-1.69l9.31-9.06c-5.617-7.272-5.13-17.888 1.459-24.582.963-.978 1.993-1.81 3.11-2.466L76.77 61.535c-3.5 1.774-6.24 3.734-8.484 6.164-11.492 11.675-12.058 30.521-1.698 42.903zm37.197-11.588l.56-.771a1.006 1.006 0 0 1 1.098-.366l14.443 4.335c.573.172.87.803.638 1.354l-.517 1.22c-1.826 3.71-3.89 6.687-6.422 9.098-6.237 6.337-14.527 9.804-23.366 9.804s-17.129-3.467-23.366-9.804c-12.859-13.062-12.859-34.532-.022-47.571 2.397-2.597 5.328-4.694 9.036-6.576l1.149-.5a1.006 1.006 0 0 1 1.367.641L82.65 74.55c.116.4-.025.83-.356 1.081l-.657.5a13.634 13.634 0 0 0-2.847 2.24c-6.344 6.445-6.344 16.987 0 23.432 3.107 3.156 7.12 4.868 11.429 4.868 4.308 0 8.322-1.712 11.428-4.868.86-.874 1.582-1.8 2.138-2.789zm18.785-.358l-.326 1.168a1.006 1.006 0 0 1-1.263.692l-14.18-4.34a1.006 1.006 0 0 1-.698-1.124l.172-1.053c1.246-5.74-.34-11.555-4.3-15.611-3.084-3.158-7.067-4.872-11.342-4.872-1.262 0-2.64.166-3.905.487l-.978.167a1.006 1.006 0 0 1-1.135-.71l-4.237-14.523c-.156-.533.15-1.091.683-1.247l1.174-.343c2.672-.684 5.524-1.033 8.398-1.033 8.782 0 17.017 3.473 23.212 9.818 8.245 8.445 11.58 20.827 8.725 32.524z" fill="#282B33"/><path d="M242.475 91.508h-45.728c-.46 0-.767-.402-.767-1.005 0-.604.307-1.006.767-1.006h45.728c.46 0 .768.402.768 1.006 0 .603-.307 1.005-.768 1.005zm-.872-6.476c-.495-.33-.495-.99 0-1.32.33-.33.991-.33 1.322 0l5.617 5.61c.66.826.66 1.981 0 2.642l-5.617 5.611c-.33.33-.991.33-1.322 0-.33-.33-.33-.99 0-1.32l5.617-5.612-5.617-5.611zm-80.017-67.725l-.715-.707 1.414-1.43.715.707c19.722 19.497 30.023 43.358 30.883 71.533l.03 1.005-2.01.061-.03-1.005c-.845-27.661-10.934-51.032-30.287-70.164zm2.812 145.731a2.513 2.513 0 0 1-2.105 3.885 2.513 2.513 0 1 1 .37-4.997c18.17-17.891 27.882-40.397 29.149-67.569a4.024 4.024 0 0 1 1.154-7.877 4.024 4.024 0 0 1 .856 7.954c-1.28 27.515-11.091 50.4-29.424 68.604zm28.568-70.524c1.113 0 2.014-.9 2.014-2.011 0-1.11-.901-2.011-2.014-2.011-1.112 0-2.014.9-2.014 2.01 0 1.111.902 2.012 2.014 2.012zm-30.673-73.413a2.513 2.513 0 1 1 2.514-2.511 2.513 2.513 0 0 1-2.514 2.511z" fill="#A4AFB1" fill-rule="nonzero"/></g></svg>
