<svg xmlns="http://www.w3.org/2000/svg" width="250" height="180" viewBox="0 0 250 180">
    <defs>
        <linearGradient id="a" x1="-.928%" x2="100.887%" y1="49.994%" y2="49.994%">
            <stop offset="0%" stop-color="#19B5DB"/>
            <stop offset="100%" stop-color="#ACDBE1"/>
        </linearGradient>
    </defs>
    <g fill="none" fill-rule="nonzero">
        <path fill="url(#a)" d="M89.497 0c49.318 0 89.497 40.408 89.497 90s-40.18 90-89.497 90S0 139.592 0 90 40.18 0 89.497 0zm0 2.011C41.293 2.011 2.011 41.516 2.011 90s39.282 87.989 87.486 87.989c48.204 0 87.486-39.505 87.486-87.989S137.701 2.011 89.497 2.011z"/>
        <path fill="#282B33" d="M110.615 89.497H90.07v-2.011h22.252c.191 0 .304-.096.304-.213v-2.59c0-.113-.1-.214-.304-.214h-45.65c-.19 0-.303.096-.303.214v2.59c0 .113.098.213.303.213h10.963v2.011h-8.25v.329c0 3.941 7.812 11.083 17.697 17.505l.458.298v15.04l4.92-3.657v-11.373l.444-.299c10.498-7.073 17.71-13.626 17.71-17.514v-.329zm2.01-.018v.347c0 4.867-7.134 11.413-18.154 18.883v11.314l-6.284 4.67H85.53v-15.974c-10.378-6.803-18.155-13.983-18.155-18.893v-.329h-.702c-1.322 0-2.314-1.008-2.314-2.224v-2.59c0-1.305 1.077-2.225 2.314-2.225h45.65c1.323 0 2.315 1.008 2.315 2.225v2.59c0 1.197-.907 2.07-2.011 2.206zm-11.06-10.038h-2.012v-3.809c0-1.287 1.023-2.224 2.225-2.224h2.59c1.287 0 2.224 1.023 2.224 2.224v3.81h-2.011v-3.81c0-.128-.078-.213-.213-.213h-2.59c-.129 0-.214.078-.214.213v3.81zM86.48 74.413h2.012v6.034H86.48v-6.034zM67.374 57.318h2.011V68.38h-2.01V57.318zm43.24 3.017h2.012v11.062h-2.011V60.335zm-13.095 5.67c.2 1.38-.856 2.375-2.22 2.375h-2.577c-1.299 0-2.22-1.065-2.22-2.293v-5.47c0-1.313 1.009-2.293 2.22-2.293H95.3c1.298 0 2.219 1.065 2.219 2.293v5.388zm-2.22.364c.23 0 .242-.011.226-.096l-.018-.186v-5.47c0-.177-.09-.282-.207-.282h-2.578c-.113 0-.208.093-.208.282v5.47c0 .177.09.282.208.282H95.3zM79.229 76.425h-2.59c-1.3 0-2.225-1.065-2.225-2.293v-5.47c0-1.314 1.012-2.293 2.225-2.293h2.59c1.3 0 2.225 1.064 2.225 2.292v5.47c0 1.188-1.048 2.294-2.225 2.294zm0-2.012c.041 0 .213-.181.213-.281v-5.47c0-.176-.091-.282-.213-.282h-2.59c-.117 0-.213.093-.213.281v5.47c0 .177.091.282.213.282h2.59z"/>
        <path fill="#A4AFB1" d="M242.585 91.508h-45.728c-.46 0-.768-.402-.768-1.005 0-.604.307-1.006.768-1.006h45.728c.46 0 .767.402.767 1.006 0 .603-.307 1.005-.767 1.005zm-.873-6.476c-.495-.33-.495-.99 0-1.32.33-.33.992-.33 1.322 0l5.617 5.61c.66.826.66 1.981 0 2.642l-5.617 5.611c-.33.33-.991.33-1.322 0-.33-.33-.33-.99 0-1.32l5.617-5.612-5.617-5.611zm-80.017-67.725l-.715-.707 1.414-1.43.715.707c19.722 19.497 30.023 43.358 30.883 71.533l.031 1.005-2.01.061-.03-1.005c-.845-27.661-10.934-51.032-30.288-70.164zm2.813 145.731a2.513 2.513 0 0 1-2.105 3.885 2.513 2.513 0 1 1 .369-4.997c18.17-17.891 27.883-40.397 29.15-67.569a4.024 4.024 0 0 1 1.154-7.877 4.024 4.024 0 0 1 .855 7.954c-1.279 27.515-11.09 50.4-29.423 68.604zm28.567-70.524c1.113 0 2.015-.9 2.015-2.011 0-1.11-.902-2.011-2.015-2.011-1.112 0-2.014.9-2.014 2.01 0 1.111.902 2.012 2.014 2.012zm-30.673-73.413a2.513 2.513 0 1 1 2.514-2.511 2.513 2.513 0 0 1-2.514 2.511z"/>
    </g>
</svg>
