<svg class="{{ include.css-class }}" width="264" height="263" viewBox="0 0 264 263" xmlns="http://www.w3.org/2000/svg"><title>Sectors</title><defs><linearGradient x1="-.928%" y1="49.994%" x2="100.887%" y2="49.994%" id="a"><stop stop-color="#19B5DB" offset="0%"/><stop stop-color="#ACDBE1" offset="100%"/></linearGradient><linearGradient x1="-.937%" y1="49.979%" x2="100.877%" y2="49.979%" id="b"><stop stop-color="#55BCB1" offset="0%"/><stop stop-color="#B3DCD9" offset="100%"/></linearGradient><linearGradient x1="-.946%" y1="49.979%" x2="100.868%" y2="49.979%" id="c"><stop stop-color="#75BD7B" offset="0%"/><stop stop-color="#D0DF91" offset="100%"/></linearGradient><linearGradient x1="86.001%" y1="85.959%" x2="14.04%" y2="13.999%" id="d"><stop stop-color="#A8BE17" offset="0%"/><stop stop-color="#B6CE61" offset="72.93%"/><stop stop-color="#BAD47A" offset="100%"/></linearGradient></defs><g fill="none" fill-rule="evenodd"><path d="M57.358.015c31.088 0 56.417 25.36 56.417 56.485s-25.329 56.485-56.417 56.485S.942 87.625.942 56.5 26.27.015 57.358.015zm0 1.262C26.972 1.277 2.21 26.07 2.21 56.5c0 30.43 24.762 55.223 55.148 55.223 30.387 0 55.149-24.794 55.149-55.223 0-30.43-24.762-55.223-55.149-55.223z" fill="url(#a)" fill-rule="nonzero"/><path d="M70.67 56.184H57.72v-1.262h14.026c.12 0 .192-.06.192-.134v-1.625c0-.071-.063-.134-.192-.134H42.97c-.12 0-.191.06-.191.134v1.625c0 .071.062.134.19.134h6.911v1.262h-5.2v.207c0 2.474 4.925 6.956 11.156 10.986l.288.187v9.439l3.102-2.295v-7.137l.28-.188c6.617-4.44 11.164-8.552 11.164-10.992v-.207zm1.268-.011v.218c0 3.054-4.498 7.163-11.444 11.85v7.102l-3.962 2.93h-1.676V68.249c-6.541-4.27-11.443-8.776-11.443-11.857v-.207h-.443c-.834 0-1.46-.632-1.46-1.396v-1.625c0-.82.68-1.396 1.46-1.396h28.776c.834 0 1.46.632 1.46 1.396v1.625c0 .751-.572 1.3-1.268 1.385zm-6.973-6.3h-1.268v-2.39c0-.808.645-1.397 1.402-1.397h1.633c.811 0 1.402.642 1.402 1.397v2.39h-1.267v-2.39c0-.08-.05-.134-.135-.134H65.1c-.08 0-.134.049-.134.134v2.39zm-9.508-3.155h1.267v3.786h-1.267v-3.786zm-12.044-10.73h1.267v6.943h-1.267v-6.942zm27.257 1.894h1.268v6.942H70.67v-6.942zm-8.255 3.558c.126.867-.54 1.49-1.4 1.49h-1.624c-.819 0-1.399-.668-1.399-1.438v-3.433c0-.824.635-1.44 1.399-1.44h1.625c.818 0 1.399.67 1.399 1.44v3.381zm-1.4.229c.146 0 .153-.007.143-.06l-.011-.117v-3.433c0-.111-.057-.177-.131-.177H59.39c-.071 0-.131.058-.131.177v3.433c0 .11.057.177.13.177h1.626zm-10.13 6.31h-1.633c-.82 0-1.402-.667-1.402-1.438v-3.433c0-.825.637-1.44 1.402-1.44h1.633c.82 0 1.402.669 1.402 1.44v3.433c0 .745-.66 1.439-1.402 1.439zm0-1.261c.026 0 .134-.114.134-.177v-3.433c0-.11-.058-.177-.134-.177h-1.633c-.074 0-.134.059-.134.177v3.433c0 .11.057.177.134.177h1.633z" fill="#282B33" fill-rule="nonzero"/><path d="M141.628 57.447h-16.795c-.17 0-.282-.253-.282-.631 0-.38.113-.632.282-.632h16.795c.169 0 .281.253.281.632 0 .378-.112.63-.281.63zm-.536-4.065a.484.484 0 0 1 0-.829c.208-.207.624-.207.833 0l3.54 3.522c.417.518.417 1.243 0 1.657l-3.54 3.522c-.209.208-.625.208-.833 0-.209-.207-.209-.621 0-.828l3.54-3.522-3.54-3.522zM102.87 10.877l-.451-.444.891-.897.451.443c12.432 12.237 18.926 27.212 19.468 44.895l.02.631-1.268.039-.02-.631c-.532-17.36-6.891-32.029-19.091-44.036zm1.773 91.463c.162.247.257.543.257.861 0 .871-.71 1.577-1.585 1.577a1.58 1.58 0 0 1-1.584-1.577 1.58 1.58 0 0 1 1.817-1.559c11.455-11.229 17.577-25.354 18.375-42.407a2.527 2.527 0 0 1-1.81-2.42 2.531 2.531 0 0 1 2.538-2.524 2.531 2.531 0 0 1 2.537 2.525c0 1.21-.856 2.22-1.998 2.467-.806 17.269-6.991 31.631-18.547 43.057zm18.008-44.262c.701 0 1.27-.565 1.27-1.262 0-.697-.569-1.263-1.27-1.263-.701 0-1.27.566-1.27 1.263s.569 1.262 1.27 1.262zm-19.336-46.075a1.58 1.58 0 0 1-1.584-1.576c0-.87.71-1.577 1.584-1.577a1.58 1.58 0 0 1 1.585 1.577c0 .87-.71 1.576-1.585 1.576z" fill="#A4AFB1" fill-rule="nonzero"/><path d="M150.813 56.5c0-31.125 25.328-56.485 56.416-56.485 31.053 0 56.312 25.324 56.417 56.485 0 31.125-25.328 56.485-56.417 56.485-31.088 0-56.416-25.36-56.416-56.485zm1.268 0c0 30.43 24.762 55.223 55.148 55.223 30.387 0 55.15-24.794 55.15-55.22-.103-30.467-24.799-55.226-55.15-55.226-30.386 0-55.148 24.794-55.148 55.223z" fill="url(#b)" fill-rule="nonzero"/><path d="M213.173 63.31a9.496 9.496 0 0 1-6.26 2.341c-5.252 0-9.509-4.238-9.509-9.467 0-5.228 4.257-9.466 9.508-9.466 5.252 0 9.509 4.238 9.509 9.466 0 2.4-.897 4.591-2.375 6.26l.025-.025 7.87 7.835-.897.892-7.871-7.836zm-6.26 1.079c4.55 0 8.24-3.673 8.24-8.205 0-4.53-3.69-8.204-8.24-8.204-4.552 0-8.241 3.673-8.241 8.204 0 4.532 3.69 8.205 8.24 8.205zm-21.845-15.147c-.817 0-1.444-.737-1.6-1.588l-.01-.113V43.37c0-.95.733-1.7 1.61-1.7h1.852c.929 0 1.61.8 1.61 1.7v4.172c0 .951-.733 1.701-1.61 1.701h-1.852zm0-1.262h1.852c.169 0 .342-.177.342-.439V43.37c0-.245-.164-.438-.342-.438h-1.852c-.169 0-.342.177-.342.438v4.109c.068.29.253.502.342.502zm38.618 12.622h-1.853c-.876 0-1.609-.75-1.609-1.7V54.73c0-.9.681-1.701 1.61-1.701h1.852c.877 0 1.61.75 1.61 1.7v4.172l-.01.113c-.156.85-.783 1.588-1.6 1.588zm.342-1.764V54.73c0-.262-.173-.439-.342-.439h-1.853c-.177 0-.341.193-.341.439V58.9c0 .262.173.439.341.439h1.853c.09 0 .273-.211.342-.502zm2.876-9.596c-.928 0-1.609-.8-1.609-1.7v-4.173c0-.95.733-1.7 1.61-1.7h1.852c.929 0 1.61.8 1.61 1.7v4.172c0 .951-.733 1.701-1.61 1.701h-1.853zm0-1.262h1.853c.169 0 .342-.177.342-.439V43.37c0-.245-.165-.438-.342-.438h-1.853c-.168 0-.34.177-.34.438v4.172c0 .246.163.439.34.439zM190.14 60.602c-.928 0-1.61-.8-1.61-1.7V54.73c0-.951.733-1.701 1.61-1.701h1.853c.928 0 1.609.8 1.609 1.7v4.172c0 .951-.733 1.701-1.61 1.701h-1.852zm0-1.262h1.853c.168 0 .341-.177.341-.439V54.73c0-.246-.164-.439-.341-.439h-1.853c-.169 0-.342.177-.342.439V58.9c0 .246.165.439.342.439zm-3.121 11.991h-1.95c-.877 0-1.61-.75-1.61-1.7v-4.172c0-.9.681-1.701 1.61-1.701h1.852c.877 0 1.61.75 1.61 1.7v4.173c0 .952-.634 1.7-1.512 1.7zm0-1.262c.125 0 .244-.14.244-.438v-4.172c0-.262-.173-.439-.342-.439h-1.852c-.178 0-.342.193-.342.439v4.172c0 .261.173.438.342.438h1.95zm22.723-9.467h-1.853c-.877 0-1.61-.75-1.61-1.7V54.73c0-.9.682-1.701 1.61-1.701h1.853c.876 0 1.609.75 1.609 1.7v4.172l-.01.113c-.156.85-.783 1.588-1.6 1.588zm.341-5.872c0-.262-.173-.439-.341-.439h-1.853c-.177 0-.342.193-.342.439V58.9c0 .262.173.439.342.439h1.853c.089 0 .273-.211.341-.502V54.73zm6.339-6.75h-1.268v-4.7a.347.347 0 0 0-.341-.35h-1.853c-.18 0-.341.152-.341.35v1.86h-1.268v-1.86c0-.913.745-1.611 1.609-1.611h1.853c.914 0 1.609.747 1.609 1.61v4.7zm-13.946-2.84h-1.268v-1.86a.347.347 0 0 0-.34-.35h-1.854c-.18 0-.341.152-.341.35v4.7h-1.268v-4.7c0-.913.745-1.611 1.61-1.611h1.852c.914 0 1.61.747 1.61 1.61v1.86zm19.017 21.388h-1.268v-1.07c0-.9.681-1.7 1.61-1.7h1.852c.877 0 1.61.75 1.61 1.7v4.173c0 .9-.682 1.7-1.61 1.7h-.975V70.07h.975c.177 0 .342-.193.342-.438v-4.172c0-.262-.173-.439-.342-.439h-1.853c-.177 0-.341.193-.341.439v1.07zm-29.159-24.86h1.268v8.205h-1.268V41.67zm13.946 0h1.267v3.787h-1.267V41.67zm23.454 10.73H231v8.204h-1.267v-8.204zm0 10.729H231v8.204h-1.267v-8.204zm-9.509-21.458h1.268v8.204h-1.268V41.67zm-36.766 10.729h1.268v8.204h-1.268v-8.204zm31.695 16.126h1.268v1.088c0 .909-.678 1.72-1.61 1.72h-1.852c-.88 0-1.61-.76-1.61-1.72v-2.067h1.269v2.067c0 .274.175.457.34.457h1.854c.174 0 .341-.2.341-.457v-1.088zm-8.874-.98h1.267v2.068c0 .909-.678 1.72-1.609 1.72h-1.853c-.879 0-1.609-.76-1.609-1.72v-2.067h1.268v2.067c0 .274.176.457.341.457h1.853c.175 0 .342-.2.342-.457v-2.067zm-13.946-4.417h1.268v8.204h-1.268v-8.204zm5.071 1.262h1.268v6.942h-1.268V64.39zm5.071-11.991h1.268v8.204h-1.268v-8.204z" fill="#282B33"/><path d="M206.597 141.287v-16.795c0-.169.252-.282.63-.282.38 0 .632.113.632.282v16.795c0 .17-.252.282-.631.282s-.631-.113-.631-.282zm4.065-.536a.484.484 0 0 1 .828 0c.208.208.208.625 0 .833l-3.522 3.54c-.517.417-1.243.417-1.657 0l-3.522-3.54c-.207-.208-.207-.625 0-.833.207-.208.622-.208.829 0l3.522 3.54 3.522-3.54zm42.505-38.222l.443-.45.898.89-.444.451c-12.236 12.433-27.212 18.926-44.895 19.468l-.63.02-.04-1.267.632-.02c17.36-.532 32.028-6.892 44.036-19.092zm-91.463 1.773a1.563 1.563 0 0 1-.862.258 1.58 1.58 0 0 1-1.576-1.585 1.58 1.58 0 0 1 1.576-1.585 1.58 1.58 0 0 1 1.56 1.818c11.228 11.454 25.354 17.576 42.407 18.375a2.527 2.527 0 0 1 2.419-1.81 2.531 2.531 0 0 1 2.524 2.537 2.531 2.531 0 0 1-2.524 2.538 2.528 2.528 0 0 1-2.467-1.998c-17.27-.807-31.632-6.992-43.057-18.548zm44.262 18.008c0 .702.565 1.27 1.262 1.27.697 0 1.262-.568 1.262-1.27 0-.7-.565-1.27-1.262-1.27-.697 0-1.262.57-1.262 1.27zm46.075-19.335a1.58 1.58 0 0 1 1.576-1.585c.87 0 1.576.71 1.576 1.585a1.58 1.58 0 0 1-1.576 1.585 1.58 1.58 0 0 1-1.576-1.585z" fill="#A4AFB1" fill-rule="nonzero"/><path d="M207.23 149.667c31.052 0 56.311 25.324 56.416 56.485 0 31.125-25.328 56.486-56.417 56.486-31.088 0-56.416-25.361-56.416-56.486 0-31.124 25.328-56.485 56.416-56.485zm0 1.262c-30.387 0-55.15 24.794-55.15 55.223 0 30.43 24.763 55.223 55.15 55.223 30.386 0 55.148-24.794 55.148-55.22-.102-30.467-24.798-55.226-55.149-55.226z" fill="url(#c)" fill-rule="nonzero"/><path d="M218.688 209.047l7.648-7.43a20.55 20.55 0 0 0-1.591-4.435l-6.276 6.348c.398 1.726.414 3.557.02 5.367l-.015.085.214.065zm1.382.421l6.193 1.887.025-.09a20.7 20.7 0 0 0 .339-8.167l-6.557 6.37zm-2.01-7.324l6.059-6.128a19.957 19.957 0 0 0-2.454-3.37l-5.765 5.834a11.597 11.597 0 0 1 2.16 3.664zm-3.14-4.661l5.772-5.84a19.414 19.414 0 0 0-3.706-2.801l-5.89 6.338a11.354 11.354 0 0 1 3.824 2.303zm-5.299-2.714l6.123-6.589a18.897 18.897 0 0 0-3.984-1.41l-7.318 7.403.207.706a11.45 11.45 0 0 1 2.734-.335c.761 0 1.51.076 2.238.225zm-5.586-1.984l6.228-6.3a20.26 20.26 0 0 0-7.84.39l-.11.033 1.722 5.877zm-10.851 27.357c.037.038.074.077.112.114 3.693 3.736 8.593 5.777 13.826 5.777 5.232 0 10.132-2.041 13.84-5.79 1.493-1.417 2.71-3.165 3.784-5.335l-7.965-2.476a9.87 9.87 0 0 1-1.552 2.013c-2.194 2.22-5.05 3.432-8.107 3.432-3.047 0-5.892-1.204-8.083-3.407l-5.855 5.672zm-.959-1.06l5.87-5.686c-3.541-4.565-3.235-11.227.919-15.428a9.538 9.538 0 0 1 1.96-1.548l-2.33-8.133c-2.207 1.114-3.934 2.344-5.348 3.87-7.245 7.327-7.602 19.154-1.07 26.925zm23.448-7.273l.353-.484a.635.635 0 0 1 .693-.23l9.104 2.721a.63.63 0 0 1 .402.85l-.326.766c-1.151 2.328-2.452 4.196-4.048 5.71-3.932 3.977-9.158 6.153-14.73 6.153-5.571 0-10.797-2.176-14.729-6.153-8.105-8.198-8.105-21.673-.014-29.857 1.511-1.63 3.36-2.946 5.696-4.127l.725-.314a.635.635 0 0 1 .861.403l2.69 9.208a.63.63 0 0 1-.224.679l-.414.314a8.59 8.59 0 0 0-1.795 1.405c-3.999 4.045-3.999 10.662 0 14.706 1.959 1.981 4.489 3.056 7.205 3.056 2.715 0 5.246-1.075 7.204-3.056a8.337 8.337 0 0 0 1.347-1.75zm11.841-.225l-.205.734a.634.634 0 0 1-.796.433l-8.939-2.724a.631.631 0 0 1-.44-.704l.11-.661c.784-3.603-.216-7.253-2.712-9.798-1.944-1.982-4.455-3.058-7.15-3.058-.795 0-1.664.104-2.461.306l-.617.104a.634.634 0 0 1-.715-.445l-2.671-9.115a.63.63 0 0 1 .43-.783l.74-.215a21.551 21.551 0 0 1 5.295-.648c5.535 0 10.727 2.18 14.632 6.162 5.197 5.3 7.3 13.07 5.5 20.412z" fill="#282B33"/><path d="M122.14 205.52h16.795c.169 0 .281.252.281.63 0 .38-.112.632-.281.632H122.14c-.17 0-.282-.252-.282-.631s.113-.631.282-.631zm.536 4.065a.484.484 0 0 1 0 .828c-.209.207-.625.207-.833 0l-3.541-3.522c-.417-.518-.417-1.243 0-1.657l3.54-3.522c.209-.207.625-.207.834 0 .208.207.208.622 0 .829l-3.541 3.522 3.54 3.522zm38.222 42.504l.45.444-.891.898-.45-.444c-12.433-12.236-18.926-27.212-19.469-44.895l-.019-.63 1.267-.04.02.632c.532 17.36 6.892 32.028 19.092 44.035zm-1.773-91.462a1.563 1.563 0 0 1-.258-.862c0-.87.71-1.576 1.585-1.576a1.58 1.58 0 0 1 1.585 1.576 1.58 1.58 0 0 1-1.818 1.56c-11.454 11.228-17.577 25.353-18.375 42.407a2.527 2.527 0 0 1 1.81 2.419 2.531 2.531 0 0 1-2.538 2.524 2.531 2.531 0 0 1-2.537-2.524c0-1.21.856-2.222 1.998-2.467.806-17.27 6.991-31.632 18.548-43.057zm-18.009 44.262c-.701 0-1.27.565-1.27 1.262 0 .697.569 1.262 1.27 1.262.702 0 1.27-.565 1.27-1.262 0-.697-.568-1.262-1.27-1.262zm19.336 46.074a1.58 1.58 0 0 1 1.585 1.577c0 .87-.71 1.576-1.585 1.576a1.58 1.58 0 0 1-1.585-1.576c0-.87.71-1.577 1.585-1.577z" fill="#A4AFB1" fill-rule="nonzero"/><path d="M1 206.152c0-31.124 25.328-56.485 56.416-56.485 31.089 0 56.417 25.36 56.417 56.485s-25.328 56.486-56.417 56.486C26.328 262.638 1 237.277 1 206.152zm1.268 0c0 30.43 24.762 55.223 55.148 55.223 30.387 0 55.15-24.794 55.15-55.223s-24.763-55.223-55.15-55.223c-30.386 0-55.148 24.794-55.148 55.223z" fill="url(#d)" fill-rule="nonzero"/><path d="M38.807 202.098l4 9.68c.01.032.045.064.081.079l.107-.045 15.521-6.532c.085-.042.09-.047.132-.132.016-.031.016-.031-.018-.103l-3.955-9.574-4.417 8.853c-.208.551-.72.8-1.311.8h-.303l-9.837-3.026zm.505-1.165l9.523 2.929h.112c.119 0 .132-.007.124.017l.034-.083 4.411-8.84-14.204 5.977zm10.015 17.526h17.75v-28.212c0-.482-.335-.82-.806-.82H50.132c-.47 0-.805.338-.805.82v3.729a.633.633 0 0 1-.634.631.633.633 0 0 1-.634-.631v-3.73c0-1.175.9-2.08 2.073-2.08h16.139c1.174 0 2.073.905 2.073 2.08v31.18c0 1.176-.899 2.082-2.073 2.082H50.132c-1.174 0-2.073-.906-2.073-2.081V212c0-.348.284-.63.634-.63.35 0 .634.282.634.63v6.46zm0 1.262v1.706c0 .482.335.819.805.819h16.139c.47 0 .805-.337.805-.82v-1.705H49.327zm7.29 1.894a.633.633 0 0 1-.634-.631c0-.349.284-.631.634-.631h3.17c.35 0 .633.282.633.63a.633.633 0 0 1-.634.632h-3.169zm-13.686-8.487c-.59 0-1.14-.386-1.313-.91l-4.234-10.251a1.292 1.292 0 0 1 0-1.185c.165-.33.368-.534.736-.717l15.52-6.53c.737-.37 1.527-.03 1.91.739l4.234 10.25c.192.385.192.8 0 1.185-.165.33-.368.534-.736.717l-15.464 6.508c-.197.155-.392.194-.653.194zm-6.287.054a.635.635 0 0 1-.831-.334.63.63 0 0 1 .334-.828l2.697-1.143a.635.635 0 0 1 .832.333.63.63 0 0 1-.335.828l-2.697 1.144zm-1.862 3.428a.635.635 0 0 1-.834-.326.63.63 0 0 1 .327-.831l5.498-2.39a.63.63 0 1 1 .507 1.157l-5.498 2.39z" fill="#282B33" fill-rule="nonzero"/><text font-family="Montserrat-Light, Montserrat" font-size="16" font-weight="300" fill="#869FE1" transform="translate(-10 -180)"><tspan x="43.518" y="166.826">DATOS</tspan></text><text font-family="Montserrat-Light, Montserrat" font-size="16" font-weight="300" fill="#869FE1" transform="translate(-10 -180)"><tspan x="176.426" y="166.826">ANÁLISIS</tspan></text></g></svg>
