<svg class="{{ include.css-class }}" width="1239" height="249" viewBox="0 0 1239 249" xmlns="http://www.w3.org/2000/svg"><title>Service journey</title><defs><linearGradient x1="-.928%" y1="49.994%" x2="100.887%" y2="49.994%" id="a"><stop stop-color="#19B5DB" offset="0%"/><stop stop-color="#ACDBE1" offset="100%"/></linearGradient><linearGradient x1="-.946%" y1="49.979%" x2="100.868%" y2="49.979%" id="b"><stop stop-color="#75BD7B" offset="0%"/><stop stop-color="#D0DF91" offset="100%"/></linearGradient><linearGradient x1="-.937%" y1="49.979%" x2="100.877%" y2="49.979%" id="c"><stop stop-color="#55BCB1" offset="0%"/><stop stop-color="#B3DCD9" offset="100%"/></linearGradient><linearGradient x1="86.001%" y1="85.959%" x2="14.04%" y2="13.999%" id="d"><stop stop-color="#A8BE17" offset="0%"/><stop stop-color="#B6CE61" offset="72.93%"/><stop stop-color="#BAD47A" offset="100%"/></linearGradient></defs><g fill="none" fill-rule="evenodd"><path d="M123 0C55.224 0 0 55.449 0 123.5S55.224 247 123 247c67.776 0 123-55.449 123-123.5S190.776 0 123 0z" stroke="url(#a)" stroke-width="2" transform="translate(1 1)"/><path d="M785 0c-67.776 0-123 55.449-123 123.5S717.224 247 785 247c67.776 0 123-55.449 123-123.5C907.772 55.449 852.776 0 785 0z" stroke="url(#b)" stroke-width="2" transform="translate(1 1)"/><path d="M331 123.5c0 68.051 55.224 123.5 123 123.5 67.776 0 123-55.449 123-123.5C576.772 55.449 521.776 0 454 0c-67.776 0-123 55.449-123 123.5z" stroke="url(#c)" stroke-width="2" transform="translate(1 1)"/><path d="M991 123.5c0 68.051 55.224 123.5 123 123.5 67.776 0 123-55.449 123-123.5S1181.776 0 1114 0c-67.776 0-123 55.449-123 123.5z" stroke="url(#d)" stroke-width="2" transform="translate(1 1)"/><g stroke="#FFF" stroke-linecap="round" stroke-linejoin="round" stroke-width="2"><path d="M817.936 92.102C809.596 83.597 798.552 79 786.832 79c-3.832 0-7.664.46-11.27 1.38l-1.578.459 5.86 19.997 1.353-.23c1.803-.46 3.832-.689 5.635-.689 6.31 0 12.171 2.528 16.68 7.126 5.86 5.976 8.113 14.48 6.31 22.755l-.225 1.38 19.61 5.976.45-1.61c3.832-15.63-.676-32.18-11.72-43.442z"/><path d="M806.232 137.09c-.908 1.606-2.043 2.984-3.178 4.132-4.54 4.591-10.44 7.116-16.795 7.116-6.355 0-12.257-2.525-16.796-7.116-9.306-9.413-9.306-24.794 0-34.207 1.135-1.148 2.497-2.296 4.085-3.214l.908-.689-5.9-20.202-1.59.689c-4.539 2.295-8.624 5.05-12.029 8.723-17.25 17.448-17.25 46.145 0 63.592C763.335 164.41 774.457 169 786.26 169s22.923-4.591 31.321-13.086c3.632-3.443 6.355-7.576 8.625-12.167l.68-1.607-19.972-5.969-.681.918zm-52.884 17.447l14.98-14.234-14.98 14.234zm25.42-57.164l16.796-16.988-16.795 16.988zm13.619 3.214l14.753-14.922-14.753 14.922zm11.348 6.199L816.9 93.47l-13.164 13.316zm6.128 10.79l14.753-14.923-14.753 14.923zm2.497 14.004l17.25-16.76-17.25 16.76z"/></g><g transform="translate(404 91)" stroke="#FFF" stroke-width="2"><path d="M2.154 15.213h4.092c1.077 0 2.154-.938 2.154-2.344V3.727c0-1.172-.862-2.344-2.154-2.344H2.154C1.077 1.383 0 2.321 0 3.727v9.142c.215 1.172 1.077 2.344 2.154 2.344zM70 13.83V3.529c0-1.073-.862-2.146-2.154-2.146h-4.092c-1.077 0-2.154.858-2.154 2.146v4.077M39.2 7.606V3.53c0-1.073-.862-2.146-2.154-2.146h-4.092c-1.077 0-2.154.858-2.154 2.146v10.3M87.446 40.106h-4.092c-1.077 0-2.154-.937-2.154-2.344v-9.141c0-1.172.862-2.344 2.154-2.344h4.092c1.077 0 2.154.937 2.154 2.344v9.141c-.215 1.172-1.077 2.344-2.154 2.344zM81.2 54.475v-2.344c0-1.172.862-2.344 2.154-2.344h4.092c1.077 0 2.154.938 2.154 2.344v9.142c0 1.172-.862 2.344-2.154 2.344h-2.154M19.6 0v17.979M50.4 0v8.298M102.2 23.51v17.98M102.2 47.021V65M94.554 15.213h4.092c1.077 0 2.154-.938 2.154-2.344V3.727c0-1.172-.862-2.344-2.154-2.344h-4.092c-1.077 0-2.154.938-2.154 2.344v9.142c0 1.172.862 2.344 2.154 2.344zM81.2 0v17.979M13.354 40.106h4.092c1.077 0 2.154-.937 2.154-2.344v-9.141c0-1.172-.862-2.344-2.154-2.344h-4.092c-1.077 0-2.154.937-2.154 2.344v9.141c0 1.172.862 2.344 2.154 2.344zM0 23.51v17.98M6.462 63.617H2.154C1.077 63.617 0 62.679 0 61.273v-9.142c0-1.172.862-2.344 2.154-2.344h4.092c1.077 0 2.154.938 2.154 2.344v9.142c0 1.406-.862 2.344-1.938 2.344zM70 58.848v2.385c0 1.192-.862 2.384-2.154 2.384h-4.092c-1.077 0-2.154-.954-2.154-2.384v-4.53M50.4 56.702v4.53c0 1.193-.862 2.385-2.154 2.385h-4.092c-1.077 0-2.154-.954-2.154-2.384v-4.53M19.6 47.021V65M30.8 49.787V65"/><ellipse cx="50.4" cy="31.809" rx="19.6" ry="19.362"/><path d="M56.646 40.106h-4.092c-1.077 0-2.154-.937-2.154-2.344v-9.141c0-1.172.862-2.344 2.154-2.344h4.092c1.077 0 2.154.937 2.154 2.344v9.141c-.215 1.172-1.077 2.344-2.154 2.344zM42 23.51v17.98M64.4 45.638l18.2 17.979"/></g><g stroke="#FFF" stroke-width="2"><path d="M154.208 122.212v1.85c0 7.399-15.578 18.96-25.2 25.434v15.723L121.22 171h-1.833v-21.504c-9.622-6.243-25.2-18.035-25.2-25.434v-1.85M107.034 122.212H91.817c-1.136 0-1.817-.845-1.817-1.69v-3.59c0-1.056.908-1.69 1.817-1.69h63.366c1.136 0 1.817.845 1.817 1.69v3.59c0 1.057-.908 1.69-1.817 1.69h-30.888M138.854 109.667v-5.28c0-1.056.846-1.69 1.692-1.69h3.595c1.058 0 1.692.845 1.692 1.69v5.28M120.708 102.697v8.364M109.246 104.09h-3.596c-1.057 0-1.692-.891-1.692-1.783v-7.583c0-1.116.846-1.785 1.692-1.785h3.596c1.057 0 1.692.893 1.692 1.785v7.583c0 .892-.846 1.784-1.692 1.784zM131.554 92.94h-3.578c-1.053 0-1.684-.893-1.684-1.785v-7.583c0-1.115.842-1.784 1.684-1.784h3.578c1.053 0 1.684.892 1.684 1.784v7.583c.21 1.115-.631 1.784-1.684 1.784zM94.188 79v15.333M154.208 83.182v15.333"/></g><g stroke="#FFF" stroke-width="2"><path d="M1099.547 96.55v-8.316c0-1.848 1.377-3.234 3.213-3.234h36.027c1.836 0 3.213 1.386 3.213 3.234v69.532c0 1.848-1.377 3.234-3.213 3.234h-36.027c-1.836 0-3.213-1.386-3.213-3.234v-21.021M1099.547 152.556H1142M1117.943 156.778h7.076" stroke-linecap="round" stroke-linejoin="round"/><path d="M1086.683 137.852c-.695 0-1.39-.463-1.621-1.159l-9.494-22.949a1.48 1.48 0 0 1 0-1.39c.231-.464.463-.696.926-.928l34.734-14.604c.926-.463 1.853 0 2.316.927l9.494 22.95a1.48 1.48 0 0 1 0 1.39c-.232.464-.463.696-.927.928l-34.734 14.603c-.231.232-.463.232-.694.232z"/><path d="M1112.85 96.822l-11.116 22.254c-.231.695-.926.927-1.62.927h-.464l-23.388-7.186"/><path d="M1072.094 138.084l6.02-2.55M1067.926 145.734l12.273-5.332" stroke-linecap="round" stroke-linejoin="round"/></g><g transform="translate(221 21)" fill="#FFF" fill-rule="nonzero"><ellipse cx="3.408" cy="2.784" rx="2.742" ry="2.742"/><ellipse cx="3.408" cy="205.216" rx="2.742" ry="2.742"/><path d="M50.944 104c0-2.742-1.829-4.798-4.343-5.255-1.37-36.557-16.226-70.6-42.05-96.418a1.105 1.105 0 0 0-1.6 0 1.104 1.104 0 0 0 0 1.599C28.32 29.287 42.945 63.102 44.316 98.745c-2.285.685-4.114 2.742-4.114 5.255s1.829 4.798 4.114 5.255c-1.371 35.871-15.997 69.686-41.365 95.047a1.104 1.104 0 0 0 0 1.6c.229.228.457.457.914.457s.686-.229.914-.457c25.825-25.818 40.908-60.09 42.051-96.647 2.057-.457 4.114-2.742 4.114-5.255zm-5.485 2.97c-1.6 0-3.2-1.37-3.2-3.198 0-1.6 1.372-3.2 3.2-3.2 1.6 0 3.2 1.372 3.2 3.2-.23 1.827-1.6 3.198-3.2 3.198z"/><path d="M91.777 105.142H49.37c-.427 0-.712-.457-.712-1.142 0-.685.285-1.142.712-1.142h42.407c.426 0 .711.457.711 1.142 0 .685-.285 1.142-.711 1.142z"/><path d="M92.333 96.232l7.77 7.768-7.77 7.768c-.457.457-.457 1.371 0 1.828.457.457 1.371.457 1.829 0l7.77-7.768c.914-.914.914-2.513 0-3.656l-7.77-7.768c-.458-.457-1.372-.457-1.829 0-.685.457-.685 1.37 0 1.828z"/></g><g transform="translate(885 21)" fill="#FFF" fill-rule="nonzero"><path d="M48.835 103.543c0-2.742-1.824-4.798-4.333-5.255C43.134 61.731 28.31 27.688 2.538 1.87a1.1 1.1 0 0 0-1.596 0 1.106 1.106 0 0 0 0 1.6c25.315 25.36 39.911 59.175 41.28 94.818-2.281.685-4.106 2.742-4.106 5.255s1.825 4.798 4.105 5.255c-1.368 35.871-15.964 69.686-41.28 95.048a1.106 1.106 0 0 0 0 1.599c.229.228.457.457.913.457.228 0 .684-.229.912-.457 25.772-25.818 40.824-60.09 41.964-96.647 2.053-.457 4.105-2.513 4.105-5.255zm-5.473 3.199c-1.597 0-3.193-1.371-3.193-3.199 0-1.6 1.368-3.199 3.193-3.199 1.596 0 3.193 1.371 3.193 3.199-.228 1.828-1.597 3.199-3.193 3.199z"/><ellipse cx="2.745" cy="2.751" rx="2.745" ry="2.751"/><ellipse cx="2.745" cy="205.249" rx="2.745" ry="2.751"/><path d="M89.755 104.914H47.268c-.428 0-.713-.457-.713-1.142 0-.686.285-1.143.713-1.143h42.487c.428 0 .713.457.713 1.143 0 .456-.285 1.142-.713 1.142z"/><path d="M89.825 95.775l7.754 7.768-7.754 7.768c-.456.457-.456 1.371 0 1.828.456.457 1.368.457 1.824 0l7.755-7.768c.912-.914.912-2.513 0-3.656l-7.755-7.768c-.456-.457-1.368-.457-1.824 0-.456.685-.456 1.37 0 1.828z"/></g><g transform="translate(552 19)" fill="#FFF" fill-rule="nonzero"><ellipse cx="3.741" cy="3.654" rx="2.732" ry="2.74"/><ellipse cx="3.741" cy="205.989" rx="2.732" ry="2.74"/><path d="M51.088 104.822c0-2.74-1.82-4.796-4.325-5.253C45.398 63.03 30.602 29.003 4.88 3.197a1.098 1.098 0 0 0-1.593 0 1.106 1.106 0 0 0 0 1.599C28.553 30.145 43.12 63.943 44.487 99.569c-2.276.685-4.097 2.74-4.097 5.253 0 2.512 1.82 4.795 4.097 5.252-1.366 35.854-15.934 69.653-41.201 95.002a1.106 1.106 0 0 0 0 1.598c.227.229.455.457.91.457.228 0 .683-.228.91-.457 25.723-25.805 40.747-60.06 41.885-96.6 2.049-.457 4.097-2.74 4.097-5.252zm-5.463 2.968c-1.593 0-3.187-1.37-3.187-3.197 0-1.598 1.366-3.197 3.187-3.197 1.594 0 3.187 1.37 3.187 3.197-.228 1.827-1.593 3.197-3.187 3.197z"/><path d="M91.93 105.963H49.524c-.427 0-.712-.456-.712-1.141s.285-1.142.712-1.142H91.93c.427 0 .712.457.712 1.142 0 .685-.285 1.141-.712 1.141z"/><path d="M92.228 97.057l7.74 7.765-7.74 7.764c-.455.457-.455 1.37 0 1.827.455.457 1.366.457 1.82 0l7.74-7.764c.91-.914.91-2.512 0-3.654l-7.74-7.765c-.454-.457-1.365-.457-1.82 0-.683.457-.683 1.37 0 1.827z"/></g></g></svg>
