<svg class="{{ include.css-class }}" width="347" height="324" viewBox="0 0 347 324" xmlns="http://www.w3.org/2000/svg"><title>Solutions</title><g fill="none" fill-rule="evenodd"><g transform="scale(-1 1) rotate(-44 315.317 357.725)"><path d="M5.041 4.992c27.01 21.68 61.036 35.108 98.107 36.351m11.114.006c37.154-1.205 71.257-14.649 98.314-36.376" stroke="#FFF" stroke-width="2"/><ellipse fill="#FFF" cx="212.576" cy="4.144" rx="4.201" ry="4.144"/><ellipse fill="#FFF" cx="4.201" cy="4.144" rx="4.201" ry="4.144"/><ellipse stroke="#FFF" stroke-width="2" cx="108.809" cy="41.852" rx="5.461" ry="5.387"/><path d="M108.86 47.783v48.802M98.726 97.957l10.09 9.946 10.093-9.946" stroke="#FFF" stroke-width="2" stroke-linecap="round" stroke-linejoin="round"/></g><g transform="rotate(-44 488.488 -70.625)"><path d="M5.041 4.992c27.01 21.68 61.036 35.108 98.107 36.351m11.114.006c37.154-1.205 71.257-14.649 98.314-36.376" stroke="#FFF" stroke-width="2"/><ellipse fill="#FFF" cx="212.576" cy="4.144" rx="4.201" ry="4.144"/><ellipse fill="#FFF" cx="4.201" cy="4.144" rx="4.201" ry="4.144"/><ellipse stroke="#FFF" stroke-width="2" cx="108.809" cy="41.852" rx="5.461" ry="5.387"/><path d="M108.86 47.783v48.802M98.726 97.957l10.09 9.946 10.093-9.946" stroke="#FFF" stroke-width="2" stroke-linecap="round" stroke-linejoin="round"/></g><path d="M174.8 301.205c-83.167 0-150.8-67.336-150.8-150.103C24 68.336 91.633 1 174.8 1c83.152 0 150.817 67.336 150.817 150.102 0 82.767-67.665 150.103-150.817 150.103" stroke="#FFF" stroke-width="2"/><g fill="#FFF"><path d="M141.929 192.217a8.55 8.55 0 0 0-3.832-.886c-1.287 0-2.377.106-3.241.316-1.821.443-3.361 1.274-4.604 2.479v-14.36c0-.611-.183-1.138-.543-1.566a1.95 1.95 0 0 0-1.536-.719h-3.087a1.96 1.96 0 0 0-1.703.974 1.453 1.453 0 0 0-.389.458 5.802 5.802 0 0 1-1.29 1.573c-.425.358-.81.546-1.145.558l-.115.002c-.458 0-1.092-.087-1.863-.255a5.768 5.768 0 0 0-1.337-.182l-.129.002c-1.14.042-1.88.786-1.977 1.98l-.255 2.821c-.072.75.202 1.397.758 1.81.877.682 2.247.973 4.213.903 1.172-.044 2.226-.338 3.152-.882v29.248c0 .633.198 1.18.589 1.625.417.476 1.003.727 1.693.727h2.456c.831 0 1.47-.241 1.899-.717.399-.44.61-1.006.61-1.635v-12.42c0-1.71.645-3.19 1.967-4.514 1.235-1.213 2.49-1.801 3.839-1.801 1.437 0 3.35.501 3.35 4.84v13.895c0 .638.223 1.21.647 1.653.444.464 1.084.699 1.905.699h2.208c.767 0 1.379-.222 1.82-.66.435-.43.665-1.015.665-1.692v-13.873c0-3.436-.618-6.102-1.842-7.93-.714-1.046-1.684-1.877-2.883-2.471M190.98 191.33c-1.773 0-3.297.585-4.537 1.746a7.286 7.286 0 0 0-1.313 1.734 9.873 9.873 0 0 0-.516-1.35c-.49-1.013-1.398-1.57-2.556-1.57h-1.217c-1.443 0-2.305.929-2.305 2.485 0 .187.034.523.277 1.706.11.537.242 1.843.242 5.018v15.392c0 .632.197 1.18.588 1.625.29.332.832.726 1.761.726h2.614c.9 0 1.428-.4 1.713-.736.378-.444.57-.988.57-1.615v-11.862c0-1.484.404-2.902 1.197-4.208a5.81 5.81 0 0 1 1.349-1.525c.438-.342.83-.515 1.164-.515.462 0 1.13.111 1.968.325.563.157 1.04.233 1.457.233 1.142 0 1.91-.715 2.05-1.906l.36-2.81c.1-.747-.15-1.403-.69-1.836-.848-.71-2.215-1.056-4.176-1.056M217.454 204.428c0 2.397-.393 4.392-1.17 5.93-.896 1.793-2.222 2.663-4.05 2.663-1.484 0-2.79-.624-3.99-1.907-1.298-1.393-1.93-3.01-1.93-4.944v-1.228c0-1.934.603-3.583 1.839-5.037 1.247-1.446 2.7-2.15 4.441-2.15 1.474 0 2.628.635 3.529 1.943.883 1.273 1.331 2.865 1.331 4.73m1.255-12.056c-1.41-.691-3.023-1.041-4.797-1.041-1.767 0-3.374.328-4.776.974a10.151 10.151 0 0 0-3.498 2.634 9.53 9.53 0 0 0-.559-1.479c-.49-1.013-1.398-1.57-2.556-1.57h-1.374c-.672 0-1.261.238-1.705.69-.437.444-.668.98-.668 1.55 0 .412.03.74.09 1.003.434 1.847.654 4.862.654 8.96v24.728c0 1.641.861 2.62 2.305 2.62h2.794c.52 0 2.214-.182 2.214-2.53v-9.226c0-.982-.014-1.898-.044-2.744 1.7 1.635 3.884 2.46 6.526 2.46 3.547 0 6.451-1.545 8.63-4.59 2.007-2.79 3.025-6.238 3.025-10.25 0-3.858-.918-7-2.73-9.336a10 10 0 0 0-3.53-2.853M243.41 210.146c0 .606-.41 1.23-1.215 1.855-.406.314-.9.577-1.47.782-.56.203-1.312.305-2.233.305a3.515 3.515 0 0 1-2.225-.765 2.32 2.32 0 0 1-.665-.858c-.163-.35-.245-.768-.245-1.24 0-.45.089-.82.273-1.133.201-.341.565-.708 1.082-1.09.457-.336 1.143-.507 2.04-.507 1.247 0 2.333.26 3.24.782.902.5 1.353 1.116 1.417 1.87m6.782-1.958c.472-2.252.711-4.163.711-5.682 0-3.68-1.235-6.58-3.675-8.627-2.047-1.691-4.649-2.55-7.731-2.55-3.322 0-6.034.631-8.061 1.875-1.264.78-1.905 1.67-1.905 2.645 0 .507.223 1.186.693 2.117.198.417.802 1.687 1.973 1.687.425 0 .873-.13 1.361-.393 1.755-.924 3.495-1.393 5.172-1.393 1.812 0 3.221.43 4.178 1.265.453.412.81.942 1.058 1.572.26.654.39 1.312.39 1.958v.243c-1.705-1.012-3.681-1.523-5.896-1.523-2.818 0-5.172.648-7.006 1.93-2.277 1.627-3.433 3.994-3.433 7.034 0 2.777 1.047 5.055 3.111 6.772a9.517 9.517 0 0 0 3.13 1.713c1.152.378 2.322.569 3.477.569 1.138 0 2.201-.13 3.165-.389 1.946-.53 3.539-1.475 4.76-2.817l.034.26c.04.24.067.442.08.606.025.308.123.622.299.958.426.824 1.495.824 1.846.824h2.185c1.269 0 2.057-.79 2.057-2.087-.062-2.15-.707-4.954-1.973-8.567M159.138 200.306c0-.605.408-1.23 1.214-1.854.405-.314.9-.577 1.47-.783.56-.202 1.312-.304 2.232-.304.833 0 1.565.252 2.226.765.286.229.503.51.664.857.163.351.246.768.246 1.242 0 .449-.09.819-.273 1.132-.202.341-.566.708-1.083 1.09-.456.336-1.142.507-2.04.507-1.246 0-2.332-.261-3.24-.783-.901-.499-1.352-1.115-1.416-1.869m4.95 8.764c2.817 0 5.172-.648 7.006-1.93 2.277-1.628 3.432-3.994 3.432-7.034 0-2.777-1.046-5.055-3.11-6.773a9.519 9.519 0 0 0-3.13-1.711c-2.287-.752-4.694-.704-6.642-.182-1.946.532-3.54 1.476-4.76 2.818a44.018 44.018 0 0 1-.034-.26 7.84 7.84 0 0 1-.08-.606 2.48 2.48 0 0 0-.299-.958c-.426-.824-1.495-.824-1.846-.824h-2.185c-1.27 0-2.058.79-2.057 2.088.061 2.149.707 4.953 1.973 8.566-.473 2.252-.712 4.163-.712 5.682 0 3.68 1.235 6.581 3.676 8.627 2.046 1.691 4.648 2.55 7.731 2.55 3.321 0 6.032-.631 8.06-1.876 1.265-.78 1.906-1.669 1.906-2.644 0-.514-.217-1.173-.693-2.117-.199-.417-.803-1.688-1.973-1.688-.424 0-.872.13-1.361.394-1.756.924-3.496 1.393-5.172 1.393-1.812 0-3.222-.43-4.178-1.264-.46-.42-.806-.934-1.059-1.573a5.311 5.311 0 0 1-.39-1.958l.001-.243c1.705 1.012 3.68 1.523 5.895 1.523M111.62 202.252l-2.43-1.004a16.225 16.225 0 0 1-1.826-.84c-.442-.244-.786-.507-1.022-.781-.204-.236-.247-.654-.247-.962 0-.139 0-.505.723-.94.23-.142.494-.247.786-.314.63-.144 1.775-.224 3.183.194.292.076.57.174.826.292.297.136.63.298 1 .484.505.256 1.07.385 1.679.385.85 0 1.535-.567 2.04-1.685.4-.887.604-1.729.604-2.501 0-.541-.23-1.322-1.337-1.981-1.876-1.081-4.219-1.63-6.963-1.63-2.595 0-4.825.646-6.624 1.915-2.107 1.471-3.175 3.49-3.175 6.003 0 2.022.565 3.726 1.686 5.074a9.112 9.112 0 0 0 1.871 1.66c.68.457 1.418.884 2.196 1.269.783.388 1.61.725 2.458 1.003.778.255 1.506.535 2.166.834 1.274.567 1.92 1.194 1.92 1.863 0 .594 0 1.987-3.416 1.987-.833 0-1.673-.15-2.498-.447-.83-.299-1.48-.632-1.93-.992-.69-.548-1.38-.826-2.056-.826-.461 0-1.322.16-1.9 1.229-.288.532-.52.994-.699 1.387a3.922 3.922 0 0 0-.336 1.637c0 .773.503 1.525 1.533 2.296 1.764 1.343 4.38 2.025 7.774 2.025 3.381 0 6.049-.879 7.932-2.616 1.73-1.617 2.607-3.7 2.607-6.19 0-2.02-.763-3.82-2.275-5.352-.774-.766-2.16-1.574-4.25-2.476"/></g><path d="M170.788 77.281a4.956 4.956 0 0 1-.163-1.263c0-2.743 2.233-4.967 4.988-4.967 2.757 0 4.99 2.224 4.99 4.967 0 .394-.046.777-.133 1.144 11.662 2.536 30.385 13.599 33.318 23.912 5.462 19.202 3.666 29.79.744 40.09a400.91 400.91 0 0 0-1.448 5.195c-.025.077-.06.146-.087.22-.58 2.682-.753 4.76-3.008 6.202-.04-.016 0 0-.039-.018-.58-.296-1.207-2.282-1.419-3.004-.314-.16-.677-.156-.646.603.168 1.135.515 2.035 1.367 2.903 0 0-.844 2.386-2.01 2.014-1.453-1.126-2.004-3.668-2.144-6.172-9.252 7.257-23.698 12.239-29 12.239-5.134 0-20.258-4.28-30.234-11.354-.216 2.198-.794 4.294-2.075 5.287-1.167.372-2.01-2.014-2.01-2.014.852-.868 1.198-1.768 1.366-2.903.033-.759-.33-.762-.646-.603-.212.722-.838 2.708-1.42 3.004-.036.018.002.002-.036.018-2.642-1.689-2.424-4.239-3.352-7.62-.403-1.462-.775-2.776-1.12-3.996-2.924-10.3-3.97-20.257.196-39.78 2.276-10.665 21.515-21.386 34.02-24.104zm-29.834 76.522c.2.98.997 1.85 1.605 2.393.102.091.24.483.193.652a5.04 5.04 0 0 1-.897 1.763c-.09.114-.481.15-.597.022-.949-1.038-2.83-3.503-2.355-6.292.037-.22.376-.33.499-.164a9.762 9.762 0 0 0 1.552 1.626zm3.028 7.903c-.1.115-.488.144-.581.026-.49-.626-1.06-1.55-.99-2.298a5.576 5.576 0 0 0 1.443-2.626c.032-.138.318-.534.436-.638a7.14 7.14 0 0 0 .872-.907c.08-.1.375.068.443.3.394 1.325.556 3.63-1.623 6.143zm1.532-.37c.1-.212.38-.071.46.28.312 1.35.38 3.572-1.657 5.484-.131.123-.611.206-.714.112-.484-.443-1.063-1.089-1.272-1.782l.024.052c.982-.754 1.269-1.294 1.489-1.847.053-.134.438-.616.58-.755a5.751 5.751 0 0 0 1.09-1.544zm-4.288 3.124c-2.685-2.409-2.996-5.04-2.265-6.861.082-.205.446-.203.534-.028.434.859 1.007 1.509 1.948 2.386.06.984.768 2.064 1.18 2.606.158.208.257.58.118.887a2.549 2.549 0 0 1-1.118 1.2c-.036.02-.305-.108-.397-.19zm-1.742-.422c.424.608.98 1.223 1.699 1.829.196.964.968 1.82 1.571 2.362.115.104.28.48.244.62a5.056 5.056 0 0 1-.915 1.826c-.09.114-.501.128-.632-.016-.986-1.09-2.897-3.642-2.272-6.496.03-.14.237-.223.305-.125zm5.848 3.232c.1-.123.425-.015.491.206.4 1.324.578 3.65-1.63 6.185-.096.11-.577.001-.726-.202-.445-.61-.892-1.42-.83-2.088a5.583 5.583 0 0 0 1.418-2.522c.047-.184.293-.595.388-.677.343-.294.636-.595.889-.902zm-3.63 5.219c.143.886.982 1.6 1.362 2.109.175.234.298.57.199.82-.153.385-.724 1.153-1.407 1.52-.036.02-.074.039-.112.057-2.94-2.467-3.304-5.208-2.557-7.092.084-.21.367-.413.407-.323.39.87.887 1.507 1.69 2.292.123.12.405.535.418.617zm68.07-13.856c-.116.127-.507.092-.597-.022a5.054 5.054 0 0 1-.896-1.763c-.048-.169.09-.56.193-.652.608-.542 1.404-1.412 1.605-2.393a9.762 9.762 0 0 0 1.552-1.626c.123-.167.461-.055.498.164.477 2.789-1.407 5.254-2.354 6.292zm-3.032-2.463c.118.104.404.5.436.637a5.59 5.59 0 0 0 1.444 2.626c.07.748-.5 1.674-.99 2.298-.093.12-.481.09-.581-.024-2.18-2.514-2.017-4.818-1.623-6.144.068-.231.363-.4.443-.3.247.309.536.613.871.907zm-1.683 5.447c.08-.352.36-.493.46-.28a5.75 5.75 0 0 0 1.088 1.542c.143.14.528.621.582.757.219.553.507 1.092 1.489 1.845l.023-.05c-.208.692-.787 1.338-1.272 1.78-.102.095-.582.013-.713-.111-2.038-1.912-1.97-4.135-1.657-5.483zm6.479-4.047c.088-.174.45-.176.534.03.731 1.821.42 4.452-2.265 6.86-.093.083-.361.21-.398.19a2.547 2.547 0 0 1-1.116-1.2c-.14-.307-.042-.679.116-.887.412-.542 1.12-1.622 1.18-2.605.941-.878 1.515-1.529 1.949-2.388zm-2.59 13.105a5.075 5.075 0 0 1-.914-1.827c-.037-.14.13-.516.245-.618.603-.543 1.374-1.4 1.57-2.363a9.544 9.544 0 0 0 1.699-1.829c.07-.098.276-.014.306.126.625 2.854-1.287 5.405-2.273 6.495-.13.144-.541.13-.632.016zm-1.97-1.826c.157.618.535 1.63 1.418 2.522.062.667-.386 1.477-.831 2.088-.148.203-.63.312-.726.202-2.207-2.535-2.03-4.861-1.63-6.185.066-.22.39-.33.492-.206.252.307.546.608.888.902.095.082.341.493.388.677zm4.46.73c.04-.088.324.114.407.324.748 1.884.384 4.625-2.556 7.092l-.113-.057c-.682-.367-1.254-1.136-1.406-1.52-.1-.25.023-.586.198-.82.382-.51 1.22-1.222 1.362-2.11.014-.08.296-.495.419-.616.803-.785 1.299-1.422 1.689-2.292zm-35.339-13.18c-5.734 0-22.51-5.484-30.443-12.9-.006-.04-.014-.072-.02-.109a7.135 7.135 0 0 0-.024-.353c-1.17-11.813-.04-21.243 3.104-25.872 7.108-10.474 16.717-10.261 24.569-10.15 1.437.019 2.925.022 4.54 0 7.839-.108 17.46-.324 24.571 10.15 3.061 4.51 4.212 13.508 3.202 24.78-7.12 8.11-24.82 14.454-29.499 14.454" fill="#FFF"/><path d="M184.552 125.536a6.44 6.44 0 0 1 9.085 0M157.464 125.536a6.44 6.44 0 0 1 9.085 0" stroke="#FFF" stroke-width="4"/></g></svg>
