<svg class="{{ include.css-class }}" width="593" height="283" viewBox="0 0 593 283" version="1.1" xmlns="http://www.w3.org/2000/svg" xmlns:xlink="http://www.w3.org/1999/xlink">
    <!-- Generator: Sketch 50.2 (55047) - http://www.bohemiancoding.com/sketch -->
    <title>Infografia</title>
    <desc>Created with Sketch.</desc>
    <defs>
        <linearGradient x1="-0.946011132%" y1="49.9793135%" x2="100.868367%" y2="49.9793135%" id="linearGradient-1">
            <stop stop-color="#75BD7B" offset="0%"></stop>
            <stop stop-color="#D0DF91" offset="100%"></stop>
        </linearGradient>
    </defs>
    <g id="NOSOTROS" stroke="none" stroke-width="1" fill="none" fill-rule="evenodd">
        <g id="14_NOSOTROS" transform="translate(-707.000000, -844.000000)">
            <g id="Equipo" transform="translate(59.000000, 779.000000)">
                <g id="Infografia" transform="translate(648.000000, 66.000000)">
                    <g id="Group" transform="translate(246.000000, 92.000000)" stroke="#282B33" stroke-width="2">
                        <g id="Group-4" transform="translate(75.000000, 26.000000) scale(1, -1) rotate(9.000000) translate(-75.000000, -26.000000) translate(52.000000, 4.000000)">
                            <path d="M22.3556143,31.126023 L14.2551434,29.5431148 L11.6177807,25.850519 C9.27042882,21.6414223 3.86185243,20.7189158 0.161117078,23.90015 L0,24.0389115 C0,24.0389115 4.59555482,35.1526741 7.15111956,37.514188 C10.7180038,40.3022649 17.8145914,43.8072758 23.4090721,44 L30,40.1532248" id="Stroke-13"></path>
                            <path d="M31.0518493,17.9796541 L25.8421683,11.1002675 L21.3199293,10.324279 C16.4744899,10.0603907 13.1142328,5.40445948 14.2069576,0.461125141 L14.2556942,0.24687915 C14.2556942,0.24687915 26.2987529,-0.563075208 29.6025782,0.751141056 C33.7528804,2.81783105 40.2040609,7.86828838 43,13.033707 L42.6716695,21" id="Stroke-15"></path>
                            <path d="M40.5106021,19.6976633 C35.0963183,16.378469 28.0186561,18.0751164 24.6970096,23.4895682 C21.3779182,28.90402 23.0770682,35.9819017 28.4887969,39.3010961 C33.9030807,42.6228457 40.983298,40.923643 44.3023893,35.5117464 C47.6214807,30.0972946 45.9248859,23.0168577 40.5106021,19.6976633 Z" id="Stroke-17"></path>
                        </g>
                        <g id="Group-4" transform="translate(27.000000, 26.000000) scale(-1, -1) rotate(9.000000) translate(-27.000000, -26.000000) translate(4.000000, 4.000000)">
                            <path d="M22.3556143,31.126023 L14.2551434,29.5431148 L11.6177807,25.850519 C9.27042882,21.6414223 3.86185243,20.7189158 0.161117078,23.90015 L0,24.0389115 C0,24.0389115 4.59555482,35.1526741 7.15111956,37.514188 C10.7180038,40.3022649 17.8145914,43.8072758 23.4090721,44 L30,40.1532248" id="Stroke-13"></path>
                            <path d="M31.0518493,17.9796541 L25.8421683,11.1002675 L21.3199293,10.324279 C16.4744899,10.0603907 13.1142328,5.40445948 14.2069576,0.461125141 L14.2556942,0.24687915 C14.2556942,0.24687915 26.2987529,-0.563075208 29.6025782,0.751141056 C33.7528804,2.81783105 40.2040609,7.86828838 43,13.033707 L42.6716695,21" id="Stroke-15"></path>
                            <path d="M40.5106021,19.6976633 C35.0963183,16.378469 28.0186561,18.0751164 24.6970096,23.4895682 C21.3779182,28.90402 23.0770682,35.9819017 28.4887969,39.3010961 C33.9030807,42.6228457 40.983298,40.923643 44.3023893,35.5117464 C47.6214807,30.0972946 45.9248859,23.0168577 40.5106021,19.6976633 Z" id="Stroke-17"></path>
                        </g>
                        <g id="Group-4" transform="translate(75.158390, 74.327136) rotate(9.000000) translate(-75.158390, -74.327136) translate(52.158390, 52.327136)">
                            <path d="M22.3556143,31.126023 L14.2551434,29.5431148 L11.6177807,25.850519 C9.27042882,21.6414223 3.86185243,20.7189158 0.161117078,23.90015 L0,24.0389115 C0,24.0389115 4.59555482,35.1526741 7.15111956,37.514188 C10.7180038,40.3022649 17.8145914,43.8072758 23.4090721,44 L30,40.1532248" id="Stroke-13"></path>
                            <path d="M31.0518493,17.9796541 L25.8421683,11.1002675 L21.3199293,10.324279 C16.4744899,10.0603907 13.1142328,5.40445948 14.2069576,0.461125141 L14.2556942,0.24687915 C14.2556942,0.24687915 26.2987529,-0.563075208 29.6025782,0.751141056 C33.7528804,2.81783105 40.2040609,7.86828838 43,13.033707 L42.6716695,21" id="Stroke-15"></path>
                            <path d="M40.5106021,19.6976633 C35.0963183,16.378469 28.0186561,18.0751164 24.6970096,23.4895682 C21.3779182,28.90402 23.0770682,35.9819017 28.4887969,39.3010961 C33.9030807,42.6228457 40.983298,40.923643 44.3023893,35.5117464 C47.6214807,30.0972946 45.9248859,23.0168577 40.5106021,19.6976633 Z" id="Stroke-17"></path>
                        </g>
                        <g id="Group-4" transform="translate(27.158390, 74.327136) scale(-1, 1) rotate(9.000000) translate(-27.158390, -74.327136) translate(4.158390, 52.327136)">
                            <path d="M22.3556143,31.126023 L14.2551434,29.5431148 L11.6177807,25.850519 C9.27042882,21.6414223 3.86185243,20.7189158 0.161117078,23.90015 L0,24.0389115 C0,24.0389115 4.59555482,35.1526741 7.15111956,37.514188 C10.7180038,40.3022649 17.8145914,43.8072758 23.4090721,44 L30,40.1532248" id="Stroke-13"></path>
                            <path d="M31.0518493,17.9796541 L25.8421683,11.1002675 L21.3199293,10.324279 C16.4744899,10.0603907 13.1142328,5.40445948 14.2069576,0.461125141 L14.2556942,0.24687915 C14.2556942,0.24687915 26.2987529,-0.563075208 29.6025782,0.751141056 C33.7528804,2.81783105 40.2040609,7.86828838 43,13.033707 L42.6716695,21" id="Stroke-15"></path>
                            <path d="M40.5106021,19.6976633 C35.0963183,16.378469 28.0186561,18.0751164 24.6970096,23.4895682 C21.3779182,28.90402 23.0770682,35.9819017 28.4887969,39.3010961 C33.9030807,42.6228457 40.983298,40.923643 44.3023893,35.5117464 C47.6214807,30.0972946 45.9248859,23.0168577 40.5106021,19.6976633 Z" id="Stroke-17"></path>
                        </g>
                        <path d="M86.5201069,55.5132629 C86.8361709,53.7277332 87,51.8998217 87,50.0393841 C87,48.2223899 86.8437328,46.4364205 86.5419991,44.6906572" id="Path"></path>
                        <path d="M56.1533269,14.42987 C54.4625762,14.1466115 52.7337116,14 50.9753241,14 C49.1868761,14 47.4289691,14.1516671 45.7106422,14.4445171" id="Path"></path>
                        <path d="M15.463937,44.571916 C15.158441,46.3284525 15,48.1275093 15,49.9590819 C15,52.0037765 15.1974587,54.007948 15.576535,55.9576773" id="Path"></path>
                        <path d="M46.2956557,85.703154 C47.6505976,85.8992124 49.0288602,86 50.4260156,86 C52.3283104,86 54.1955814,85.8131585 56.0166526,85.4534004" id="Path"></path>
                    </g>
                    <path d="M168,138 C168,66.8692844 225.852835,9 296.993282,9 C368.120294,9 426,66.8692844 426,138 C426,209.130716 368.120294,267 296.993282,267 C225.852835,267 168,209.130716 168,138 Z" id="Path" stroke="url(#linearGradient-1)" stroke-width="2"></path>
                    <polyline id="Path-2" stroke="#A7B1B3" stroke-width="2" points="232.144531 74.1914062 167.066406 0.763671875 0.24958976 0.763671875"></polyline>
                    <polyline id="Path-2" stroke="#A7B1B3" stroke-width="2" transform="translate(476.197061, 37.477539) scale(-1, 1) translate(-476.197061, -37.477539) " points="592.144531 74.1914062 527.066406 0.763671875 360.24959 0.763671875"></polyline>
                    <polyline id="Path-2" stroke="#A7B1B3" stroke-width="2" transform="translate(475.947471, 243.713867) scale(-1, -1) translate(-475.947471, -243.713867) " points="591.894941 280.427734 526.816816 207 360 207"></polyline>
                    <polyline id="Path-2" stroke="#A7B1B3" stroke-width="2" transform="translate(116.947471, 243.713867) scale(1, -1) translate(-116.947471, -243.713867) " points="232.894941 280.427734 167.816816 207 1 207"></polyline>
                    <ellipse id="Oval-Copy" fill="#A7B1B3" cx="232.201115" cy="74.14375" rx="4.20111505" ry="4.14375"></ellipse>
                    <ellipse id="Oval-Copy" fill="#A7B1B3" transform="translate(360.201115, 74.143750) scale(-1, 1) translate(-360.201115, -74.143750) " cx="360.201115" cy="74.14375" rx="4.20111505" ry="4.14375"></ellipse>
                    <ellipse id="Oval-Copy" fill="#A7B1B3" transform="translate(360.201115, 207.143750) scale(-1, -1) translate(-360.201115, -207.143750) " cx="360.201115" cy="207.14375" rx="4.20111505" ry="4.14375"></ellipse>
                    <ellipse id="Oval-Copy" fill="#A7B1B3" transform="translate(232.201115, 207.143750) scale(1, -1) translate(-232.201115, -207.143750) " cx="232.201115" cy="207.14375" rx="4.20111505" ry="4.14375"></ellipse>
                </g>
            </g>
        </g>
    </g>
</svg>
