<svg class="{{ include.css-class }}" width="30" height="30" viewBox="0 0 30 30" xmlns="http://www.w3.org/2000/svg"><title>Ubicación</title><path d="M20.251 15.178a5.928 5.928 0 0 0 .619-2.649 5.923 5.923 0 0 0-1.723-4.19A5.822 5.822 0 0 0 15 6.609c-3.24 0-5.87 2.648-5.87 5.92 0 .935.214 1.834.619 2.65.63 1.267 3.218 4.482 5.25 6.678 2.035-2.198 4.623-5.412 5.252-6.679zM15 4.12a8.31 8.31 0 0 1 5.913 2.466 8.412 8.412 0 0 1 2.446 5.944c0 1.321-.303 2.6-.879 3.757-.876 1.763-4.338 5.974-6.597 8.25-.486.49-1.279.49-1.766 0-2.255-2.27-5.72-6.485-6.597-8.25a8.417 8.417 0 0 1-.88-3.757c0-4.643 3.741-8.41 8.36-8.41z" fill="#282B33" fill-rule="nonzero"/></svg>
