<svg class="{{ include.css-class }}" width="299" height="36" viewBox="0 0 299 36" xmlns="http://www.w3.org/2000/svg"><title>Mount Data</title><g><path class="fill-balticsea stroke-balticsea" stroke-width=".4" d="M55.28 2.854c-8.258 0-15.168 6.742-15.168 15.168 0 8.259 6.742 15.169 15.169 15.169 8.258 0 15.168-6.742 15.168-15.169 0-8.426-6.91-15.168-15.168-15.168m0 32.19a16.975 16.975 0 0 1-17.023-17.022A16.975 16.975 0 0 1 55.281 1a16.975 16.975 0 0 1 17.022 17.022c0 9.439-7.752 17.023-17.022 17.023"/><path class="fill-balticsea" d="M28.315 5.213L15.843 24.258H15L2.528 5.213v28.82H0V1.675h3.034l12.472 18.877L27.809 1.674h3.034v32.528h-2.528zM104.663 1.674V21.9c0 17.022-24.944 17.022-24.944 0V1.674h2.528V21.9c0 13.989 19.888 13.989 19.888 0V1.674h2.528zM114.944 1.674l21.91 26.798V1.674h2.528v32.528h-1.18l-21.91-26.966v26.798h-2.528V1.674zM158.09 3.865h-11.798v-2.19h25.955v2.19H160.45v30.169h-2.528V3.865zM181.517 4.034v27.64h8.427c9.607 0 14.157-7.247 13.989-14.157-.169-6.742-4.551-13.483-13.99-13.483h-8.426zm24.944 13.483c.168 8.258-5.057 16.685-16.517 16.685h-10.955V1.674h10.955c11.123 0 16.348 7.922 16.517 15.843zM234.607 23.753l-8.764-19.72-8.764 19.72h17.528zm4.55 10.28l-3.539-7.92h-19.382l-3.54 7.92H210l14.494-32.527h2.697l14.494 32.528h-2.528zM252.809 3.865h-11.798v-2.19h25.955v2.19H255.17v30.169h-2.36zM291.91 23.753l-8.764-19.72-8.764 19.72h17.528zm4.55 10.28l-3.539-7.92H273.54L270 34.032h-2.697l14.495-32.527h2.696l14.495 32.528h-2.528zM55.28 17.854l-8.258 8.258s3.203 3.371 8.259 3.371c5.056 0 8.258-3.37 8.258-3.37l-8.258-8.26z"/><path class="fill-citron" d="M55.28 17.854l-8.258-8.258s-3.37 3.202-3.37 8.258c0 5.056 3.37 8.258 3.37 8.258l8.259-8.258z"/><path class="fill-java" d="M55.28 17.854l8.26-8.258s3.37 3.202 3.37 8.258c0 5.056-3.37 8.258-3.37 8.258l-8.26-8.258z"/></g></svg>
