<svg class="{{ include.css-class }}" width="264" height="194" viewBox="0 0 264 194" version="1.1" xmlns="http://www.w3.org/2000/svg" xmlns:xlink="http://www.w3.org/1999/xlink">
    <title>Team</title>
    <desc>Created with Sketch.</desc>
    <defs>
        <linearGradient x1="-0.927643785%" y1="49.9939703%" x2="100.886735%" y2="49.9939703%" id="linearGradient-1">
            <stop stop-color="#19B5DB" offset="0%"></stop>
            <stop stop-color="#ACDBE1" offset="100%"></stop>
        </linearGradient>
        <linearGradient x1="-0.946011132%" y1="49.9793135%" x2="100.868367%" y2="49.9793135%" id="linearGradient-2">
            <stop stop-color="#75BD7B" offset="0%"></stop>
            <stop stop-color="#D0DF91" offset="100%"></stop>
        </linearGradient>
    </defs>
    <g id="MOB" stroke="none" stroke-width="1" fill="none" fill-rule="evenodd">
        <g id="MOB---Home" transform="translate(-28.000000, -2482.000000)">
            <g id="Negocio-y-tecnología" transform="translate(-0.500000, 1730.140625)">
                <g id="Gráfica" transform="translate(24.500000, 702.859375)">
                    <g id="Team" transform="translate(4.000000, 50.000000)">
                        <path d="M57.3461914,79.1770126 C88.4344158,79.1770126 113.762643,104.537783 113.762643,135.662364 C113.762643,166.786946 88.4344158,192.147716 57.3461914,192.147716 C26.257967,192.147716 0.929739329,166.786946 0.929739329,135.662364 C0.929739329,104.537783 26.257967,79.1770126 57.3461914,79.1770126 Z M57.3461914,80.4392551 C26.9597586,80.4392551 2.19752477,105.233304 2.19752477,135.662364 C2.19752477,166.091424 26.9597586,190.885473 57.3461914,190.885473 C87.7326243,190.885473 112.494858,166.091424 112.494858,135.662364 C112.494858,105.233304 87.7326243,80.4392551 57.3461914,80.4392551 Z" id="Shape" fill="url(#linearGradient-1)" fill-rule="nonzero"></path>
                        <path d="M57.6647499,135.691937 L57.6647499,139.100926 L57.8660425,139.100926 C58.1929989,138.155253 58.6996399,137.518027 59.6885824,136.550073 C59.9938348,136.251316 60.1325191,136.111036 60.2651763,135.965265 C60.7388286,135.376787 60.9304989,134.738206 60.9304989,133.667096 C60.9304989,131.382094 59.1227843,129.529011 56.9121585,129.529011 L56.9121585,128.779011 L56.9121585,129.529011 C54.7045095,129.529011 52.8991797,131.381806 52.8991797,133.667096 C52.8991797,134.64328 53.1250998,135.39121 53.5451073,135.942014 C53.7050874,136.119308 53.8526892,136.26878 54.1444546,136.554312 C54.1968581,136.605729 54.1968581,136.605729 54.2499247,136.657915 C55.1360794,137.530359 55.6383544,138.184871 55.958888,139.100926 L56.1647499,139.100926 L56.1647499,135.691847 L54.8683682,134.390057 L55.9312338,133.331607 L56.9147946,134.319271 L57.8983554,133.331607 L58.961221,134.390057 L57.6647499,135.691937 Z M56.9306578,135.366934 L56.9147946,135.351137 L56.8989314,135.366934 L56.9306578,135.366934 Z M74.0997329,145.635768 L74.0997329,122.258109 C74.0997329,121.684876 73.6357321,121.220875 73.0624989,121.220875 L40.8922861,121.220875 C40.3190529,121.220875 39.8550521,121.684876 39.8550521,122.258109 L39.8550521,145.635768 L52.5093074,145.635768 C52.7082198,145.635768 52.8989852,145.714786 53.0396375,145.855438 L53.7135846,146.529385 L60.2412004,146.529385 L60.9151475,145.855438 C61.0557998,145.714786 61.2465652,145.635768 61.4454776,145.635768 L74.0997329,145.635768 Z M75.5997329,145.635768 L77.530584,145.635768 C77.9447976,145.635768 78.280584,145.971555 78.280584,146.385768 L78.280584,148.173002 C78.280584,150.067939 76.7446699,151.603853 74.8497329,151.603853 L39.1050521,151.603853 C37.2101151,151.603853 35.674201,150.067939 35.674201,148.173002 L35.674201,146.385768 C35.674201,145.971555 36.0099874,145.635768 36.424201,145.635768 L38.3550521,145.635768 L38.3550521,122.258109 C38.3550521,120.856448 39.4906257,119.720875 40.8922861,119.720875 L73.0624989,119.720875 C74.4641593,119.720875 75.5997329,120.856448 75.5997329,122.258109 L75.5997329,145.635768 Z M37.174201,148.173002 C37.174201,149.239512 38.0385422,150.103853 39.1050521,150.103853 L74.8497329,150.103853 C75.9162428,150.103853 76.780584,149.239512 76.780584,148.173002 L76.780584,147.135768 L61.7561378,147.135768 L61.0821907,147.809715 C60.9415384,147.950368 60.750773,148.029385 60.5518606,148.029385 L53.4029244,148.029385 C53.204012,148.029385 53.0132466,147.950368 52.8725943,147.809715 L52.1986472,147.135768 L37.174201,147.135768 L37.174201,148.173002 Z M56.9121585,128.779011 L56.9121585,128.029011 C59.9596469,128.029011 62.4304989,130.561874 62.4304989,133.667096 C62.4304989,135.059197 62.1394235,136.028963 61.4070127,136.937126 C61.219638,137.14541 61.0653475,137.301475 60.7377916,137.622062 C59.7461196,138.592687 59.3912387,139.083132 59.1545599,140.032372 C59.0712577,140.366469 58.7711651,140.600926 58.4268393,140.600926 L55.3992648,140.600926 C55.0546759,140.600926 54.7544249,140.366118 54.6713738,140.031687 C54.4447852,139.119258 54.0770099,138.592649 53.1975664,137.726813 C53.1460182,137.67612 53.1460182,137.67612 53.0946073,137.625675 C52.7822752,137.320017 52.6183682,137.154033 52.3934422,136.901252 C51.7222287,136.027187 51.3991797,134.957703 51.3991797,133.667096 C51.3991797,130.561966 53.867245,128.029011 56.9121585,128.029011 L56.9121585,128.779011 Z M57.5878095,126.462219 L56.0878095,126.462219 L56.0878095,124.331836 L57.5878095,124.331836 L57.5878095,126.462219 Z M52.0457575,128.686286 L50.9845594,129.746408 L49.2241338,127.984195 L50.285332,126.924073 L52.0457575,128.686286 Z M62.7113967,129.805692 L61.6497373,128.746032 L63.5442054,126.847989 L64.6058647,127.907649 L62.7113967,129.805692 Z M55.3034691,143.274717 L55.3034691,141.774717 L58.5258521,141.774717 L58.5258521,143.274717 L55.3034691,143.274717 Z" id="Stroke-5" fill="#282B33" fill-rule="nonzero"></path>
                        <path d="M46.7564648,33.478904 L46.3056639,33.0352085 L47.1969518,32.1375486 L47.6477527,32.5812441 C60.0799792,44.8175169 66.5734,59.7933209 67.1156334,77.4761924 L67.1349773,78.1070197 L65.8677823,78.1455383 L65.8484384,77.514711 C65.3160886,60.1541554 58.9562246,45.4863743 46.7564648,33.478904 Z M48.5292987,124.941684 C48.6921565,125.189348 48.7868406,125.485378 48.7868406,125.803406 C48.7868406,126.673979 48.077332,127.379718 47.2021088,127.379718 C46.3268856,127.379718 45.617377,126.673979 45.617377,125.803406 C45.617377,124.932833 46.3268856,124.227094 47.2021088,124.227094 C47.2811944,124.227094 47.358927,124.232857 47.4349054,124.243982 C58.8893232,113.015042 65.011672,98.8898445 65.810032,81.8366412 C64.7633447,81.5254659 64.0002658,80.5602159 64.0002658,79.4174857 C64.0002658,78.0231174 65.1364192,76.8930007 66.5376358,76.8930007 C67.9388525,76.8930007 69.0750059,78.0231174 69.0750059,79.4174857 C69.0750059,80.627699 68.2191397,81.6388513 67.0769371,81.8848287 C66.2707122,99.1535787 60.0855178,113.516269 48.5292987,124.941684 Z M66.5376358,80.6797282 C67.2389422,80.6797282 67.8072204,80.1144693 67.8072204,79.4174857 C67.8072204,78.7205021 67.2389422,78.1552432 66.5376358,78.1552432 C65.8363295,78.1552432 65.2680513,78.7205021 65.2680513,79.4174857 C65.2680513,80.1144693 65.8363295,80.6797282 66.5376358,80.6797282 Z M47.2021088,34.6048945 C46.3268856,34.6048945 45.617377,33.8991557 45.617377,33.0285827 C45.617377,32.1580098 46.3268856,31.4522709 47.2021088,31.4522709 C48.077332,31.4522709 48.7868406,32.1580098 48.7868406,33.0285827 C48.7868406,33.8991557 48.077332,34.6048945 47.2021088,34.6048945 Z" id="Combined-Shape" fill="#A4AFB1" fill-rule="nonzero" transform="translate(57.346191, 79.415994) rotate(-90.000000) translate(-57.346191, -79.415994) "></path>
                        <path d="M207.346191,79.1770126 C238.398536,79.1770126 263.657862,104.501218 263.762643,135.662364 C263.762643,166.786946 238.434416,192.147716 207.346191,192.147716 C176.257967,192.147716 150.929739,166.786946 150.929739,135.662364 C150.929739,104.537783 176.257967,79.1770126 207.346191,79.1770126 Z M207.346191,80.4392551 C176.959759,80.4392551 152.197525,105.233304 152.197525,135.662364 C152.197525,166.091424 176.959759,190.885473 207.346191,190.885473 C237.732624,190.885473 262.494858,166.091424 262.494862,135.664477 C262.392413,105.198019 237.69708,80.4392551 207.346191,80.4392551 Z" id="Shape" fill="url(#linearGradient-2)" fill-rule="nonzero"></path>
                        <path d="M223.617931,141.642783 L223.617931,144.792799 L222.117931,144.792799 L222.117931,143.01238 L219.286012,142.754463 L219.14136,142.267051 C219.02935,141.889624 218.881707,141.530917 218.700576,141.196584 L218.466285,140.764125 L220.226207,138.516866 L219.100385,137.391044 L216.853126,139.150966 L216.420667,138.916675 C216.086334,138.735545 215.727627,138.587901 215.350201,138.475891 L214.878381,138.335867 L214.533931,135.499321 L212.941061,135.499321 L212.596611,138.335867 L212.124791,138.475891 C211.747364,138.587901 211.388658,138.735545 211.054324,138.916675 L210.621866,139.150966 L208.374607,137.391044 L207.248784,138.516866 L209.008707,140.764125 L208.774416,141.196584 C208.593285,141.530917 208.445642,141.889624 208.333631,142.267051 L208.18898,142.754463 L205.357061,143.01238 L205.357061,144.792799 L203.857061,144.792799 L203.857061,141.642783 L207.059786,141.351096 C207.113379,141.208458 207.171312,141.068084 207.233519,140.930193 L205.248642,138.395688 L208.253428,135.390902 L210.787934,137.375778 C210.930696,137.311374 211.07612,137.251551 211.223963,137.196381 L211.612191,133.999321 L215.8628,133.999321 L216.251029,137.196381 C216.398872,137.251551 216.544295,137.311374 216.687058,137.375778 L219.221563,135.390902 L222.22635,138.395688 L220.241473,140.930193 C220.30368,141.068084 220.361612,141.208458 220.415206,141.351096 L223.617931,141.642783 Z M217.226626,144.792799 L215.726626,144.792799 L215.726626,143.878842 C215.726626,142.780143 214.836195,141.889712 213.737496,141.889712 C212.638796,141.889712 211.748365,142.780143 211.748365,143.878842 L211.748365,144.792799 L210.248365,144.792799 L210.248365,143.878842 C210.248365,141.951716 211.810369,140.389712 213.737496,140.389712 C215.664622,140.389712 217.226626,141.951716 217.226626,143.878842 L217.226626,144.792799 Z M200.204887,121.966712 L201.704887,121.966712 C201.704887,123.065411 202.595318,123.955842 203.694017,123.955842 C204.792717,123.955842 205.683148,123.065411 205.683148,121.966712 L207.183148,121.966712 C207.183148,123.893839 205.621144,125.455842 203.694017,125.455842 C201.766891,125.455842 200.204887,123.893839 200.204887,121.966712 Z M189.835322,144.792799 L188.335322,144.792799 L188.335322,121.966712 C188.335322,120.517983 189.478074,119.390625 190.911409,119.390625 L223.780974,119.390625 C225.214309,119.390625 226.357061,120.517983 226.357061,121.966712 L226.357061,144.792799 L224.857061,144.792799 L224.857061,121.966712 C224.857061,121.350998 224.390401,120.890625 223.780974,120.890625 L190.911409,120.890625 C190.301981,120.890625 189.835322,121.350998 189.835322,121.966712 L189.835322,144.792799 Z M211.600749,145.868886 L229.096191,145.868886 L229.096191,147.531929 C229.096191,149.963056 227.125144,151.934103 224.694017,151.934103 L189.998365,151.934103 C187.567239,151.934103 185.596191,149.963056 185.596191,147.531929 L185.596191,145.868886 L204.004678,145.868886 L204.917721,146.781929 L210.687705,146.781929 L211.600749,145.868886 Z M212.222069,147.368886 L211.309025,148.281929 L204.296401,148.281929 L203.383357,147.368886 L187.096191,147.368886 L187.096191,147.531929 C187.096191,149.134629 188.395666,150.434103 189.998365,150.434103 L224.694017,150.434103 C226.296717,150.434103 227.596191,149.134629 227.596191,147.531929 L227.596191,147.368886 L212.222069,147.368886 Z M191.987496,125.455842 L191.987496,121.966712 L193.487496,121.966712 L193.487496,123.955842 L197.209836,123.955842 L197.355072,124.518344 C197.508969,125.11439 197.743734,125.680504 198.052596,126.20351 L198.34828,126.704202 L195.715635,129.335974 L197.237799,130.858138 L199.869279,128.225785 L200.369818,128.520914 C200.894798,128.830455 201.460232,129.065023 202.055429,129.218701 L202.617931,129.363937 L202.617931,133.086277 L204.770104,133.086277 L204.770104,129.363937 L205.332606,129.218701 C205.927803,129.065023 206.493237,128.830455 207.018217,128.520914 L207.518756,128.225785 L210.150142,130.858044 L211.671668,129.33598 L209.039805,126.704116 L209.335439,126.20351 C209.644301,125.680504 209.879066,125.11439 210.032963,124.518344 L210.178199,123.955842 L213.900539,123.955842 L213.900539,121.966712 L215.400539,121.966712 L215.400539,125.455842 L211.318145,125.455842 C211.203116,125.796957 211.065708,126.128909 210.906841,126.449832 L213.792801,129.335792 L210.150154,132.979728 L207.263877,130.092493 C206.942703,130.25146 206.610919,130.388857 206.270104,130.503837 L206.270104,134.586277 L201.117931,134.586277 L201.117931,130.503837 C200.777116,130.388857 200.445332,130.25146 200.124158,130.092493 L197.237975,132.979634 L193.594139,129.335798 L196.48115,126.449745 C196.322302,126.128848 196.184909,125.796926 196.06989,125.455842 L191.987496,125.455842 Z" id="Combined-Shape" fill="#282B33" fill-rule="nonzero"></path>
                        <path d="M196.756465,33.478904 L196.305664,33.0352085 L197.196952,32.1375486 L197.647753,32.5812441 C210.079979,44.8175169 216.5734,59.7933209 217.115633,77.4761924 L217.134977,78.1070197 L215.867782,78.1455383 L215.848438,77.514711 C215.316089,60.1541554 208.956225,45.4863743 196.756465,33.478904 Z M198.529299,124.941684 C198.692157,125.189348 198.786841,125.485378 198.786841,125.803406 C198.786841,126.673979 198.077332,127.379718 197.202109,127.379718 C196.326886,127.379718 195.617377,126.673979 195.617377,125.803406 C195.617377,124.932833 196.326886,124.227094 197.202109,124.227094 C197.281194,124.227094 197.358927,124.232857 197.434905,124.243982 C208.889323,113.015042 215.011672,98.8898445 215.810032,81.8366412 C214.763345,81.5254659 214.000266,80.5602159 214.000266,79.4174857 C214.000266,78.0231174 215.136419,76.8930007 216.537636,76.8930007 C217.938852,76.8930007 219.075006,78.0231174 219.075006,79.4174857 C219.075006,80.627699 218.21914,81.6388513 217.076937,81.8848287 C216.270712,99.1535787 210.085518,113.516269 198.529299,124.941684 Z M216.537636,80.6797282 C217.238942,80.6797282 217.80722,80.1144693 217.80722,79.4174857 C217.80722,78.7205021 217.238942,78.1552432 216.537636,78.1552432 C215.83633,78.1552432 215.268051,78.7205021 215.268051,79.4174857 C215.268051,80.1144693 215.83633,80.6797282 216.537636,80.6797282 Z M197.202109,34.6048945 C196.326886,34.6048945 195.617377,33.8991557 195.617377,33.0285827 C195.617377,32.1580098 196.326886,31.4522709 197.202109,31.4522709 C198.077332,31.4522709 198.786841,32.1580098 198.786841,33.0285827 C198.786841,33.8991557 198.077332,34.6048945 197.202109,34.6048945 Z" id="Combined-Shape-Copy" fill="#A4AFB1" fill-rule="nonzero" transform="translate(207.346191, 79.415994) rotate(-90.000000) translate(-207.346191, -79.415994) "></path>
                        <polyline id="Line-3" stroke="#A4AFB1" stroke-width="1.5" stroke-linecap="round" stroke-linejoin="round" points="194.940294 61.3201138 199.940294 61.3567348 199.940294 56.3201138"></polyline>
                        <polyline id="Line-3" stroke="#A4AFB1" stroke-width="1.5" stroke-linecap="round" stroke-linejoin="round" transform="translate(66.440294, 58.838424) scale(-1, 1) translate(-66.440294, -58.838424) " points="63.9402939 61.3201138 68.9402939 61.3567348 68.9402939 56.3201138"></polyline>
                        <path d="M119.442388,-18.9490516 C136.293004,-0.0681107664 144.718312,21.4994138 144.718312,45.7535222 C144.718312,69.8436448 136.406548,91.2351711 119.783021,109.928101" id="Line-2" stroke="#A4AFB1" stroke-width="1.5" stroke-linecap="round" transform="translate(132.080350, 45.489525) scale(-1, 1) rotate(-90.000000) translate(-132.080350, -45.489525) "></path>
                        <g id="TMD" transform="translate(102.500000, 0.140625)">
                            <path d="M28.9984898,58 C13.0056762,58 0,44.990626 0,29 C0,13.009374 13.0056762,0 28.9984898,0 C44.9882831,0 58,13.009374 58,29 C58,44.990626 44.9882831,58 28.9984898,58" id="Path" stroke="#282B33" stroke-width="2" fill="#FFFFFF"></path>
                            <path d="M29,31.0854152 L14.088416,46.0782393 C14.088416,46.0782393 19.73734,52.2502441 29,52.2502441 C38.26266,52.2502441 43.911584,46.0782393 43.911584,46.0782393 L29,31.0854152 Z" id="Fill-4" fill="#282B33"></path>
                            <path d="M27.0759246,29.1613399 L12.0831006,14.2497559 C12.0831006,14.2497559 5.91109573,19.8986799 5.91109573,29.1613399 C5.91109573,38.4239999 12.0831006,44.0729239 12.0831006,44.0729239 L27.0759246,29.1613399 Z" id="Fill-6" fill="#98BE13"></path>
                            <path d="M30.9240754,29.1613399 L45.9168994,14.2497559 C45.9168994,14.2497559 52.0889043,19.8986799 52.0889043,29.1613399 C52.0889043,38.4239999 45.9168994,44.0729239 45.9168994,44.0729239 L30.9240754,29.1613399 Z" id="Fill-8" fill="#21B7CA"></path>
                        </g>
                    </g>
                </g>
            </g>
        </g>
    </g>
</svg>
