<svg class="{{ include.css-class }}" width="361" height="361" viewBox="0 0 361 361" xmlns="http://www.w3.org/2000/svg"><title>Soluciones</title><g fill="none" fill-rule="evenodd"><g stroke="#FEFEFE" stroke-width="2.5"><path d="M203.395 150.17h25.645c4.517 0 8.211 3.686 8.211 8.19v67.986M126.01 216.673v-58.426c0-4.443 3.699-8.077 8.218-8.077h25.638M111.5 227.555s1.996 10.883 9.895 10.883h118.049c7.899 0 9.899-10.883 9.899-10.883H111.5zM180.421 122.36s-13.3 14.159-13.3 20.143V193.7h26.601v-51.196c0-5.984-13.3-20.144-13.3-20.144zM167.12 155.006c0 3.607-3.835 10.65-11.755 16.779-1.552 1.2-3.156 2.462-4.163 4.052-.942 1.493-1.01 3.53-1.01 5.316v8.919h15.962M193.722 155.006c0 3.607 3.835 10.65 11.756 16.779 1.551 1.2 3.158 2.462 4.163 4.052.942 1.493 1.01 3.53 1.01 5.316v8.919h-15.962" stroke-linejoin="round"/><path d="M186.467 147.751c-.797-1.419-2.662-2.418-4.836-2.418-2.175 0-4.04 1-4.837 2.418" stroke-linecap="round" stroke-linejoin="round"/><path d="M186.467 194.908s.339 18.35 8.464 21.765" stroke-linejoin="round"/><path d="M222.742 211.836a10.17 10.17 0 0 0-3.085-6.913c-1.873-1.809-4.43-2.87-7.21-2.75-4.327.188-7.886 3.194-9.052 7.214" stroke-linecap="round"/><path d="M208.232 212.829c-.542-1.693-1.734-3.024-3.23-3.814a7.026 7.026 0 0 0-5.268-.516c-3.59 1.062-5.603 4.72-4.502 8.174" stroke-linecap="round"/><path d="M175.585 194.908s-.182 19.15-8.464 21.765" stroke-linejoin="round"/><path d="M138.101 211.836c.123-2.734 1.376-5.17 3.314-6.913 2.009-1.809 4.753-2.87 7.738-2.75 1.221.05 2.383.294 3.458.698M155.03 212.829c.542-1.693 1.733-3.024 3.23-3.814a7.027 7.027 0 0 1 5.268-.516c3.588 1.062 5.603 4.72 4.5 8.174" stroke-linecap="round"/></g><path d="M180.49 360.36C81.5 360.36 1 279.835 1 180.86 1 81.882 81.5 1.36 180.49 1.36 279.463 1.36 360 81.882 360 180.86c0 98.976-80.538 179.5-179.51 179.5" stroke="#FFF" stroke-width="2"/></g></svg>
