<svg class="{{ include.css-class }}" width="361" height="361" viewBox="0 0 361 361" xmlns="http://www.w3.org/2000/svg"><title>Nosotros</title><g fill="none" fill-rule="evenodd"><path d="M180.49 360C81.5 360 1 279.476 1 180.5S81.5 1 180.49 1C279.463 1 360 81.524 360 180.5S279.462 360 180.49 360" stroke="#FFF" stroke-width="2"/><path d="M180 194L74 300.258S114.156 344 180 344s106-43.742 106-43.742L180 194zM167 180.5L60.742 74S17 114.345 17 180.5 60.742 287 60.742 287L167 180.5zM193 180.5L299.258 74S343 114.345 343 180.5 299.258 287 299.258 287L193 180.5z" stroke="#FFF" stroke-width="2"/><g stroke="#FEFEFE" stroke-linecap="round" stroke-width="2"><path d="M65 165.836L62 164M68 161l-3-2M64 171.304L60 170M66.303 159.324c2.73-3.744 6.594-3.905 6.594-3.905s1.692-4.541 7.748-5.419l.013 5.588 5.356.91 1.23 2.146s9.42 6.866 11.472 9.558c0 0 1.708 6.393-3.249 5.551 0 0-15.13-4.964-14.918-.42 0 0 13.214 8.055 12.7 20.667H70.23s.252-6.325-3.87-8.896c-5.258-3.279-5.9-7.297-5.045-14.278"/><path d="M94.413 201c2.68 1.575 4.587 8 4.587 8H63s1.906-6.425 4.587-8h26.826z" stroke-linejoin="round"/></g><path d="M197 295.004l7-.004M173 304.88c-1.14.24-3.638.387-5.225-2.318L161.069 291H157" stroke="#FEFEFE" stroke-width="2"/><path d="M179 293l4 7M173 298l3 4" stroke="#FEFEFE" stroke-width="2" stroke-linecap="round"/><path d="M188 301.523c-1.123.45-3.269 1.292-5-1.523M180 303.563s-2.317 1.685-4-1.563M157 268h13M147.067 264H156v31h-9M212.933 267H204v31h9" stroke="#FEFEFE" stroke-width="2"/><path d="M197.073 296l-10.483-20.124c-.89-.057-5.408-.467-5.408-.467l-6.191 6.332c-5.167 3.978-7.991-1.884-7.991-1.884l7.954-10.442c2.666-3.376 5.35-3.415 5.35-3.415l11.971.018L204 271.155" stroke="#FEFEFE" stroke-width="2"/><path d="M198 295.615c-.477 1.417-3.539 9.7-7.493 2.446L185 289" stroke="#FEFEFE" stroke-width="2" stroke-linecap="round"/><path d="M212 290.5a.5.5 0 1 1-.998.002.5.5 0 0 1 .998-.002" fill="#3A4653"/><path d="M212 290.5a.5.5 0 1 1-.998.002.5.5 0 0 1 .998-.002z" stroke="#FEFEFE" stroke-width="2"/><path d="M150 287.5a.5.5 0 1 1-1 0 .5.5 0 0 1 1 0" fill="#3A4653"/><path d="M150 287.5a.5.5 0 1 1-1 0 .5.5 0 0 1 1 0z" stroke="#FEFEFE" stroke-width="2"/><g stroke="#FEFEFE" stroke-linecap="round" stroke-linejoin="round" stroke-width="2"><path d="M271 203c.449-.447.909-1.167 2.345-1.167h16.415c1.302 0 8.467-7.154 9.379-8.17.876-.977 4.778-6.817 5.861-9.337-.68-.911-2.517-1.668-4.689-1.166-2.073.48-3.291 1.96-4.69 4.668l-5.375 2.778"/><path d="M279.24 195h9.28c4.64 0 4.64-6.43 0-6.43h-6.128c-.968 0-2.78-2.57-4.312-2.57h-5.799c-1.568 0-3.516 1.408-4.64 2.57-1.74 1.927-4.641 5.144-4.641 5.144M268.117 210l5.883-5.59L259.883 191 254 196.588zM259 197l2 2M271 181v-18h10M281 181.84V154h10v29M291 170h10v8"/></g></g></svg>
