<svg class="{{ include.css-class }}" width="30" height="30" viewBox="0 0 30 30" xmlns="http://www.w3.org/2000/svg"><title>Contactar</title><g fill="#282B33" fill-rule="evenodd"><path d="M11.017 9.017v10.985H28V9.017H11.017zm0-2H28a2 2 0 0 1 2 2v10.985a2 2 0 0 1-2 2H11.017a2 2 0 0 1-2-2V9.017a2 2 0 0 1 2-2zM1.076 22.042a1 1 0 0 1-.018-2l4.96-.044a1 1 0 0 1 .018 2l-4.96.044zm1.93-4.027a1 1 0 1 1 0-2h3a1 1 0 1 1 0 2h-3z" fill-rule="nonzero"/><path d="M27.358 8.33a1 1 0 1 1 1.309 1.512c-5.336 4.617-7.774 6.705-8.045 6.877-.64.41-1.663.41-2.266-.042-.202-.15-2.744-2.322-8.003-6.832a1 1 0 0 1 1.302-1.518c4.983 4.273 7.74 6.628 7.897 6.747-.085-.064.031-.064-.005-.04.133-.086 2.98-2.525 7.811-6.704z"/></g></svg>
