<svg class="{{ include.css-class }}" width="115" height="115" viewBox="0 0 115 115" xmlns="http://www.w3.org/2000/svg"><title>Play</title><defs><linearGradient x1="86.001%" y1="85.959%" x2="14.04%" y2="13.999%" id="a"><stop stop-color="#A8BE17" offset="0%"/><stop stop-color="#B6CE61" offset="72.93%"/><stop stop-color="#BAD47A" offset="100%"/></linearGradient></defs><g fill="none" fill-rule="evenodd"><path d="M84.706 61.532L43.414 87.34a2 2 0 0 1-3.06-1.696V34.028a2 2 0 0 1 3.06-1.696L84.706 58.14a2 2 0 0 1 0 3.392z" stroke="#FFF" stroke-width="2" stroke-linecap="round" stroke-linejoin="round"/><path d="M667.074 521.96c0-31.408 25.59-57 57-57s57 25.592 57 57-25.59 57-57 57-57-25.592-57-57zm2.236 0c0 30.18 24.59 54.77 54.764 54.77 30.174 0 54.764-24.59 54.764-54.77 0-30.18-24.59-54.77-54.764-54.77-30.174 0-54.764 24.59-54.764 54.77z" fill="url(#a)" fill-rule="nonzero" transform="translate(-667 -464)"/></g></svg>
