<svg class="{{ include.css-class }}" width="30" height="30" viewBox="0 0 30 30" xmlns="http://www.w3.org/2000/svg"><title>Linkedin</title><path d="M23.61 22.695h-3.438V17.62c0-1.33-.537-2.236-1.72-2.236-.905 0-1.407.612-1.641 1.202-.088.211-.074.506-.074.802v5.308H13.33s.045-8.992 0-9.81h3.406v1.54c.2-.673 1.289-1.634 3.026-1.634 2.153 0 3.846 1.411 3.846 4.449v5.455zM8.22 9.435H8.2c-1.096 0-1.808-.75-1.808-1.699 0-.969.733-1.704 1.852-1.704 1.118 0 1.806.733 1.828 1.701 0 .951-.71 1.703-1.85 1.703zm-1.438 13.26h3.032v-9.81H6.783v9.81z" fill="#282B33" fill-rule="evenodd"/></svg>
