<svg class="{{ include.css-class }}" width="30" height="30" viewBox="0 0 30 30" xmlns="http://www.w3.org/2000/svg"><title>Twitter</title><path d="M22.774 8.755a4.151 4.151 0 0 0 1.835-2.29 8.39 8.39 0 0 1-2.65 1.004 4.18 4.18 0 0 0-3.047-1.308c-2.304 0-4.172 1.855-4.172 4.142 0 .325.035.64.107.942a11.875 11.875 0 0 1-8.602-4.327 4.117 4.117 0 0 0-.565 2.084c0 1.435.737 2.704 1.857 3.447a4.206 4.206 0 0 1-1.891-.517v.05c0 2.008 1.438 3.682 3.349 4.061a4.09 4.09 0 0 1-1.1.146c-.269 0-.531-.025-.785-.073a4.169 4.169 0 0 0 3.897 2.874 8.408 8.408 0 0 1-5.182 1.773 8.5 8.5 0 0 1-.996-.057 11.893 11.893 0 0 0 6.398 1.86c7.677 0 11.873-6.309 11.873-11.783 0-.18-.003-.36-.01-.535a8.43 8.43 0 0 0 2.081-2.144 8.379 8.379 0 0 1-2.397.651z" fill-rule="evenodd"/></svg>
