<svg class="{{ include.css-class }}" width="160" height="145" viewBox="0 0 160 145" xmlns="http://www.w3.org/2000/svg"><title>Solutions</title><defs><linearGradient x1="-.937%" y1="49.979%" x2="100.877%" y2="49.979%" id="a"><stop stop-color="#55BCB1" offset="0%"/><stop stop-color="#B3DCD9" offset="100%"/></linearGradient></defs><g fill="none" fill-rule="evenodd"><path d="M45.256 67.712c0-37.201 30.273-67.513 67.43-67.513 37.116 0 67.306 30.268 67.432 67.513 0 37.201-30.274 67.513-67.431 67.513-37.158 0-67.43-30.312-67.43-67.513zm1.515 0c0 36.37 29.597 66.004 65.916 66.004 36.319 0 65.915-29.634 65.915-66.001-.122-36.415-29.639-66.007-65.915-66.007-36.319 0-65.916 29.634-65.916 66.004z" fill="url(#a)" fill-rule="nonzero" transform="translate(-33 .031)"/><path d="M155.558 128.499l-14.965-11.692c-.15-.118-.075-.421.189-.759.263-.337.54-.483.69-.366l14.965 11.692c.15.118.075.421-.188.759-.264.337-.54.483-.69.366zm2.352-3.995a.547.547 0 0 1 .577-.739c.33-.04.701.25.742.58l.704 5.603c.01.752-.495 1.398-1.154 1.477l-5.607.673c-.33.04-.7-.25-.742-.58-.042-.33.247-.699.577-.738l5.606-.673-.703-5.603zm-4.467-64.481l-.093-.71 1.42-.179.092.71c2.56 19.557-2.08 37.421-13.907 53.554l-.422.576-1.156-.848.422-.575c11.611-15.84 16.156-33.337 13.644-52.528zm-62.092 82.73a1.767 1.767 0 0 1-.37.947c-.606.776-1.73.91-2.51.301a1.787 1.787 0 0 1-.314-2.508 1.787 1.787 0 0 1 2.705-.124c18.023-2.031 33.311-10.355 45.894-24.994a2.858 2.858 0 0 1 .072-3.416 2.862 2.862 0 0 1 4.018-.483 2.862 2.862 0 0 1 .504 4.016 2.859 2.859 0 0 1-3.498.808c-12.74 14.825-28.25 23.317-46.5 25.453zm46.859-26.903c.625.489 1.525.38 2.01-.24a1.431 1.431 0 0 0-.253-2.009 1.431 1.431 0 0 0-2.01.241 1.431 1.431 0 0 0 .253 2.008zm14.846-54.514a1.787 1.787 0 0 1-.314-2.508 1.787 1.787 0 0 1 2.51-.301c.779.61.92 1.732.314 2.508-.606.775-1.73.91-2.51.301zM4.588 128.499l14.964-11.692c.151-.118.076-.421-.188-.759-.264-.337-.54-.483-.69-.366L3.709 127.374c-.15.118-.076.421.188.759.264.337.54.483.69.366zm-2.353-3.995a.547.547 0 0 0-.576-.739c-.33-.04-.701.25-.743.58l-.703 5.603c-.01.752.494 1.398 1.154 1.477l5.607.673c.33.04.7-.25.742-.58.041-.33-.247-.699-.577-.738l-5.607-.673.703-5.603zm4.467-64.481l.093-.71-1.419-.179-.093.71C2.724 79.4 7.363 97.264 19.191 113.397l.421.576 1.156-.848-.422-.575C8.736 96.71 4.191 79.214 6.702 60.023zm62.093 82.73c.027.334.149.663.37.947.606.776 1.73.91 2.51.301.78-.61.92-1.732.314-2.508a1.787 1.787 0 0 0-2.705-.124c-18.023-2.031-33.312-10.355-45.895-24.994a2.858 2.858 0 0 0-.071-3.416 2.862 2.862 0 0 0-4.018-.483 2.862 2.862 0 0 0-.504 4.016 2.859 2.859 0 0 0 3.498.808c12.74 14.825 28.25 23.317 46.5 25.453zm-46.86-26.903a1.431 1.431 0 0 1-2.01-.24 1.431 1.431 0 0 1 .253-2.009 1.431 1.431 0 0 1 2.01.241c.485.621.373 1.52-.252 2.008zM7.09 61.336c.78-.61.921-1.732.315-2.508a1.787 1.787 0 0 0-2.51-.301c-.78.61-.92 1.732-.314 2.508.606.775 1.73.91 2.51.301z" fill="#FFF" fill-rule="nonzero"/><g fill="#FFF"><path d="M112.924 96.391c0 .299-.201.607-.599.915-.2.155-.443.285-.725.386-.276.1-.647.15-1.101.15-.411 0-.772-.124-1.098-.377a1.144 1.144 0 0 1-.328-.423 1.447 1.447 0 0 1-.121-.613c0-.22.044-.403.135-.558.099-.168.278-.35.534-.537.225-.167.563-.251 1.006-.251.615 0 1.15.129 1.599.386.444.246.667.55.698.922m3.346-.966c.233-1.11.351-2.053.351-2.803 0-1.815-.609-3.246-1.813-4.256-1.01-.834-2.293-1.258-3.814-1.258-1.639 0-2.977.311-3.977.925-.624.385-.94.824-.94 1.305 0 .25.11.585.342 1.044.098.206.396.833.973.833.21 0 .43-.064.672-.194.866-.456 1.724-.688 2.551-.688.894 0 1.59.212 2.062.625.223.203.399.464.522.775.128.323.192.648.192.966v.12c-.841-.5-1.816-.751-2.909-.751-1.39 0-2.551.32-3.456.952-1.124.803-1.694 1.97-1.694 3.47 0 1.37.517 2.494 1.535 3.341.448.372.968.656 1.544.845a5.5 5.5 0 0 0 1.716.28c.56 0 1.086-.063 1.56-.19.96-.263 1.747-.729 2.35-1.39l.016.128c.02.118.033.218.04.299.012.152.06.306.147.472.21.407.738.407.91.407h1.079c.626 0 1.015-.39 1.015-1.03-.03-1.06-.35-2.444-.974-4.227M100.12 93.57c0 1.182-.195 2.167-.577 2.926-.443.884-1.097 1.313-1.999 1.313-.732 0-1.376-.307-1.969-.94-.64-.688-.951-1.486-.951-2.44v-.606c0-.954.297-1.767.907-2.485.615-.713 1.332-1.06 2.19-1.06.728 0 1.297.313 1.742.958.435.629.656 1.414.656 2.334m.62-5.948c-.696-.34-1.492-.513-2.367-.513-.872 0-1.664.161-2.356.48a5.008 5.008 0 0 0-1.726 1.3 4.701 4.701 0 0 0-.276-.73c-.241-.5-.69-.775-1.26-.775h-.679a1.15 1.15 0 0 0-.84.34c-.216.22-.33.484-.33.765 0 .204.014.365.044.495.214.912.323 2.399.323 4.42v12.2c0 .81.425 1.293 1.137 1.293h1.378c.257 0 1.093-.09 1.093-1.249v-4.551c0-.484-.007-.936-.022-1.354.838.807 1.916 1.214 3.22 1.214 1.75 0 3.182-.762 4.257-2.265.99-1.376 1.493-3.077 1.493-5.056 0-1.904-.453-3.454-1.347-4.607a4.933 4.933 0 0 0-1.742-1.407M87.058 87.108c-.874 0-1.626.288-2.238.861-.249.24-.466.527-.648.856a4.87 4.87 0 0 0-.254-.666c-.242-.5-.69-.775-1.261-.775h-.6c-.712 0-1.138.459-1.138 1.226 0 .093.017.258.137.842.055.265.12.91.12 2.476v7.593c0 .312.097.582.29.802.143.164.41.358.868.358h1.29c.443 0 .704-.197.845-.363.186-.22.28-.487.28-.797v-5.852c0-.732.2-1.432.592-2.076.186-.3.41-.553.665-.752.216-.169.41-.254.575-.254.227 0 .557.054.97.16.278.077.513.115.72.115.563 0 .941-.353 1.01-.94l.178-1.387c.05-.368-.074-.692-.34-.906-.419-.35-1.093-.52-2.06-.52M71.35 91.537c0-.3.2-.607.598-.916.2-.154.444-.284.725-.385.277-.1.648-.15 1.102-.15.41 0 .772.124 1.098.377.14.113.248.251.328.423.08.173.12.379.12.612 0 .222-.043.404-.134.559-.1.168-.279.35-.534.537-.225.167-.564.25-1.006.25-.615 0-1.151-.128-1.6-.385-.444-.247-.666-.55-.698-.922m2.442 4.323c1.39 0 2.552-.32 3.457-.952 1.123-.803 1.693-1.97 1.693-3.47 0-1.37-.516-2.494-1.535-3.342a4.696 4.696 0 0 0-1.543-.844 5.853 5.853 0 0 0-3.277-.09c-.96.263-1.747.729-2.349 1.39a21.72 21.72 0 0 1-.017-.128 3.868 3.868 0 0 1-.04-.299 1.223 1.223 0 0 0-.146-.472c-.21-.407-.738-.407-.911-.407h-1.078c-.626 0-1.015.39-1.015 1.03.03 1.06.349 2.444.973 4.226-.233 1.112-.35 2.054-.35 2.804 0 1.815.609 3.246 1.812 4.256 1.01.834 2.294 1.257 3.815 1.257 1.638 0 2.976-.31 3.977-.925.623-.384.94-.823.94-1.304 0-.254-.107-.579-.342-1.044-.098-.206-.396-.833-.974-.833-.209 0-.43.064-.671.194-.867.456-1.725.687-2.552.687-.894 0-1.59-.212-2.061-.623a2.037 2.037 0 0 1-.522-.777 2.62 2.62 0 0 1-.193-.965v-.12c.842.499 1.816.751 2.91.751M62.86 87.545a4.218 4.218 0 0 0-1.891-.437c-.635 0-1.173.053-1.6.156-.898.219-1.657.629-2.27 1.223v-7.084c0-.301-.09-.561-.268-.773a.962.962 0 0 0-.758-.354H54.55a.967.967 0 0 0-.84.48.717.717 0 0 0-.192.226c-.175.307-.39.568-.637.776-.21.177-.4.27-.564.275l-.057.001c-.227 0-.539-.043-.92-.125a2.846 2.846 0 0 0-.659-.09l-.064.001c-.562.02-.927.387-.975.977l-.126 1.392c-.036.37.1.689.374.893.432.336 1.108.48 2.078.445a3.262 3.262 0 0 0 1.556-.435V99.52c0 .312.097.582.29.802.206.235.495.359.836.359h1.211c.41 0 .725-.12.937-.354.197-.217.3-.496.3-.807v-6.128c0-.843.32-1.573.971-2.226.61-.598 1.23-.889 1.894-.889.71 0 1.653.247 1.653 2.388v6.855c0 .315.11.597.32.816.218.229.534.345.939.345h1.09c.378 0 .68-.11.897-.326.215-.212.328-.501.328-.835v-6.844c0-1.695-.305-3.01-.908-3.913a3.663 3.663 0 0 0-1.423-1.219M47.906 92.496l-1.199-.495a8.004 8.004 0 0 1-.9-.415 1.823 1.823 0 0 1-.505-.385c-.1-.116-.121-.322-.121-.474 0-.069 0-.25.356-.464.114-.07.244-.122.388-.155.31-.071.876-.11 1.57.096.144.037.281.086.408.144.146.067.311.147.493.239.25.126.528.19.828.19.42 0 .758-.28 1.007-.832.198-.437.298-.853.298-1.234 0-.267-.113-.652-.66-.977-.925-.533-2.08-.804-3.435-.804-1.28 0-2.38.319-3.268.945-1.04.726-1.566 1.722-1.566 2.961 0 .998.279 1.839.832 2.504.26.306.57.582.923.818a9.483 9.483 0 0 0 2.296 1.121c.384.126.742.264 1.068.412.629.28.947.589.947.919 0 .293 0 .98-1.685.98a3.64 3.64 0 0 1-1.232-.22c-.41-.148-.73-.312-.953-.49-.34-.27-.68-.407-1.014-.407-.227 0-.652.078-.937.606-.142.262-.257.49-.345.684-.11.242-.166.514-.166.808 0 .381.249.752.757 1.133.87.663 2.16.999 3.835.999 1.668 0 2.984-.434 3.913-1.29.854-.798 1.287-1.826 1.287-3.055 0-.997-.377-1.884-1.123-2.64-.382-.378-1.066-.777-2.097-1.222M77.097 30.842a2.456 2.456 0 0 1 2.38-3.074 2.456 2.456 0 0 1 2.396 3.015c5.754 1.251 14.99 6.71 16.438 11.797 2.695 9.474 1.808 14.697.367 19.779-.219.77-.458 1.612-.715 2.563-.012.038-.029.071-.042.108-.286 1.324-.372 2.348-1.485 3.06-.019-.008 0 0-.018-.009-.287-.146-.596-1.126-.7-1.482-.155-.078-.335-.077-.32.297.084.56.255 1.004.675 1.433 0 0-.416 1.177-.991.993-.718-.555-.99-1.81-1.059-3.044-4.564 3.58-11.69 6.037-14.307 6.037-2.532 0-9.994-2.111-14.915-5.601-.107 1.085-.392 2.118-1.024 2.608-.576.184-.991-.993-.991-.993.42-.429.59-.873.673-1.433.016-.374-.163-.375-.319-.297-.104.356-.413 1.336-.7 1.482l-.018.01c-1.303-.834-1.196-2.092-1.654-3.76-.198-.722-.382-1.37-.553-1.972-1.442-5.081-1.958-9.993.097-19.625 1.124-5.262 10.615-10.55 16.785-11.892zM62.378 68.594c.099.484.492.913.792 1.18.05.046.118.24.095.322-.063.226-.19.554-.442.87-.044.056-.238.074-.295.011-.468-.512-1.396-1.728-1.162-3.104.018-.108.186-.163.247-.081.199.267.45.536.765.802zm1.494 3.9c-.05.056-.24.07-.287.012-.242-.309-.523-.765-.488-1.134a2.75 2.75 0 0 0 .712-1.296c.016-.067.157-.263.215-.314.166-.145.308-.296.43-.448.04-.049.185.034.219.149.194.653.274 1.79-.801 3.03zm.756-.183c.05-.105.187-.036.227.138.154.665.187 1.762-.818 2.705-.064.061-.301.102-.352.056-.239-.22-.524-.538-.628-.88l.013.026c.484-.372.625-.638.734-.911.026-.066.216-.304.287-.373.21-.206.417-.505.537-.761zm-2.116 1.54c-1.324-1.188-1.478-2.485-1.117-3.384.04-.101.22-.1.264-.014.214.424.496.745.96 1.177.03.486.38 1.019.583 1.286a.455.455 0 0 1 .058.437 1.257 1.257 0 0 1-.552.592c-.017.01-.15-.053-.196-.093zm-.859-.207c.21.3.483.603.838.902.097.475.478.898.775 1.165.057.052.139.237.12.306-.06.225-.187.57-.45.9-.045.057-.248.064-.313-.007-.486-.538-1.429-1.797-1.12-3.205.015-.068.116-.11.15-.061zm2.885 1.594c.05-.06.21-.007.242.102.198.653.285 1.8-.804 3.051-.047.054-.285 0-.358-.1-.22-.301-.44-.7-.41-1.03.436-.44.622-.94.7-1.244.023-.09.145-.294.192-.334.169-.145.314-.294.438-.445zm-1.79 2.575c.07.437.484.79.671 1.04.087.116.147.282.098.405-.075.19-.357.569-.694.75a.866.866 0 0 1-.055.028c-1.45-1.217-1.63-2.57-1.261-3.5.041-.103.18-.203.2-.158.193.429.438.743.834 1.13.06.06.2.264.206.305zm33.582-6.836c-.058.063-.25.045-.295-.011a2.493 2.493 0 0 1-.442-.87c-.024-.083.044-.276.095-.321.3-.268.693-.697.792-1.18.315-.267.567-.536.766-.803.06-.082.227-.027.245.08.236 1.377-.694 2.593-1.161 3.105zm-1.496-1.215c.058.051.2.247.215.314.07.298.251.83.712 1.296.035.369-.246.825-.488 1.133-.046.06-.238.045-.287-.012-1.075-1.24-.995-2.377-.8-3.03.033-.115.179-.198.218-.148.122.152.264.302.43.447zm-.83 2.687c.04-.173.177-.243.226-.138.12.256.327.555.537.76.07.07.26.307.287.374.108.273.25.539.735.91l.011-.024c-.103.341-.388.66-.627.878-.05.047-.288.006-.352-.055-1.005-.943-.972-2.04-.818-2.705zm3.196-1.996c.043-.086.222-.087.263.014.361.899.208 2.197-1.117 3.384-.046.042-.178.104-.197.095a1.256 1.256 0 0 1-.55-.592.457.457 0 0 1 .057-.438c.203-.268.553-.8.582-1.286.465-.433.748-.753.962-1.177zm-1.278 6.465a2.504 2.504 0 0 1-.45-.901c-.019-.07.064-.255.12-.306.298-.267.678-.69.775-1.165.355-.299.628-.602.838-.902.034-.049.136-.007.15.061.309 1.409-.634 2.667-1.12 3.205-.065.071-.268.064-.313.008zm-.972-.9c.078.304.264.803.7 1.243.03.33-.19.729-.41 1.03-.073.1-.31.154-.358.1-1.09-1.25-1.002-2.398-.804-3.051.032-.11.192-.163.242-.102.124.151.27.3.438.445.047.04.169.243.192.334zm2.2.36c.02-.044.16.055.201.159.37.93.19 2.282-1.26 3.499l-.056-.028c-.337-.181-.619-.56-.694-.75-.05-.123.011-.29.098-.405.188-.251.601-.603.672-1.04.006-.04.146-.245.206-.305.396-.387.64-.701.833-1.13zm-17.434-6.503c-2.829 0-11.105-2.706-15.019-6.364l-.01-.054a3.52 3.52 0 0 0-.012-.174c-.577-5.828-.02-10.48 1.531-12.764 3.507-5.168 8.248-5.062 12.122-5.007.709.008 1.443.01 2.24 0 3.867-.054 8.613-.16 12.122 5.007 1.51 2.225 2.078 6.664 1.58 12.225-3.513 4.001-12.246 7.131-14.554 7.131"/><path d="M84.593 55.357l-1.411-1.417a4.177 4.177 0 0 1 5.893 0l-1.411 1.417a2.177 2.177 0 0 0-3.071 0zM71.23 55.357l-1.412-1.417a4.177 4.177 0 0 1 5.893 0l-1.41 1.417a2.177 2.177 0 0 0-3.072 0z"/></g></g></svg>
